<?xml version="1.0" encoding="UTF-8"?>
<svg version="1.1" xmlns="http://www.w3.org/2000/svg" width="190" height="190">
<path d="M0 0 C6.57464158 0.17317268 12.8579433 2.28145928 19.1484375 4.04296875 C20.48966088 4.41041156 21.83113428 4.77694292 23.17285156 5.14257812 C27.04340795 6.20050439 30.90880082 7.27611399 34.7734375 8.35546875 C35.80307617 8.64244629 36.83271484 8.92942383 37.89355469 9.22509766 C38.81040039 9.48081543 39.72724609 9.7365332 40.671875 10 C41.50799316 10.23307861 42.34411133 10.46615723 43.20556641 10.70629883 C44.71153019 11.12807655 46.2164815 11.55349232 47.72021484 11.9831543 C51.1923201 13.00778644 51.1923201 13.00778644 54.7734375 13.35546875 C55.1034375 12.69546875 55.4334375 12.03546875 55.7734375 11.35546875 C56.4334375 11.35546875 57.0934375 11.35546875 57.7734375 11.35546875 C58.0003125 10.77796875 58.2271875 10.20046875 58.4609375 9.60546875 C60.11395189 6.7717298 62.16985963 5.32402762 64.7734375 3.35546875 C65.2478125 2.77796875 65.7221875 2.20046875 66.2109375 1.60546875 C67.7734375 0.35546875 67.7734375 0.35546875 70.54208374 -0.01901245 C74.83980415 0.47904985 76.07542471 1.98765583 79.03759766 5.09716797 C79.52638397 5.60114105 80.01517029 6.10511414 80.51876831 6.62435913 C81.57625708 7.71800385 82.62685295 8.8183467 83.67122269 9.92452621 C85.33121433 11.67994641 87.01113075 13.41384425 88.6980896 15.14334106 C93.48925328 20.06261148 98.24324413 25.01706188 102.98095703 29.98779297 C105.8840592 33.0307287 108.81178222 36.048201 111.75507736 39.05224991 C112.86599294 40.19650023 113.96720612 41.35026067 115.0578804 42.51382065 C121.13056447 48.99024015 125.81765385 53.57358953 135.18539429 54.05007935 C140.39532956 54.66485232 143.2110808 58.42420892 146.33583069 62.28677368 C148.48308225 66.87026635 148.19940538 71.18215365 148.17749023 76.18505859 C148.18435349 77.27669815 148.19121674 78.36833771 148.19828796 79.49305725 C148.2165861 83.10097265 148.21271366 86.70845441 148.20703125 90.31640625 C148.2115919 92.82598004 148.21689713 95.33555258 148.22291565 97.84512329 C148.23185293 103.10577336 148.22965083 108.36631097 148.21948242 113.62695312 C148.20800914 119.69656285 148.22206521 125.7657303 148.2488789 131.83528173 C148.27375549 137.68671553 148.2762055 143.53797795 148.26976204 149.38945389 C148.26960874 151.8733252 148.27566003 154.35720499 148.28805351 156.84104538 C148.30295092 160.31672677 148.2922939 163.79143854 148.27514648 167.26708984 C148.28964844 168.80250679 148.28964844 168.80250679 148.30444336 170.36894226 C148.24034807 176.58152535 147.42813238 180.28165317 143.7734375 185.35546875 C138.97672607 189.8012013 135.58275224 190.47999077 129.15777588 190.50263977 C128.48228187 190.50631646 127.80678787 190.50999315 127.11082435 190.51378125 C124.84242992 190.52481337 122.5740813 190.52866111 120.30566406 190.5324707 C118.68113052 190.53873571 117.05659841 190.54538254 115.43206787 190.55238342 C110.09274289 190.57342163 104.75341764 190.5837855 99.4140625 190.59375 C97.57576228 190.59779763 95.73746221 190.60191455 93.89916229 190.60610008 C85.26274652 190.62515114 76.62633929 190.63938241 67.98990655 190.64771205 C58.02175709 190.65748491 48.05382967 190.68380604 38.08575845 190.72421294 C30.38034255 190.75437565 22.6749903 190.76918107 14.96951652 190.77249306 C10.36770259 190.77484337 5.76612589 190.78380117 1.16437531 190.80895424 C-3.16621518 190.83224274 -7.49641237 190.83646514 -11.82704926 190.82619286 C-13.41410633 190.82569757 -15.00118281 190.83201585 -16.58818054 190.8457489 C-31.49212876 190.96747563 -31.49212876 190.96747563 -37.2265625 186.35546875 C-41.03046961 182.25125319 -42.34544999 179.21207125 -42.37373352 173.66923523 C-42.38088882 172.70615448 -42.38804413 171.74307373 -42.39541626 170.75080872 C-42.39810516 169.69568588 -42.40079407 168.64056305 -42.40356445 167.5534668 C-42.41013565 166.44100586 -42.41670685 165.32854492 -42.42347717 164.18237305 C-42.44321878 160.49397721 -42.45487395 156.80562208 -42.46484375 153.1171875 C-42.46891928 151.85868296 -42.4729948 150.60017841 -42.47719383 149.30353737 C-42.49590541 143.33093051 -42.51047127 137.35833661 -42.5188058 131.38570756 C-42.52857733 124.49760096 -42.5548972 117.60981579 -42.59530669 110.72182244 C-42.62913116 104.75083736 -42.64095285 98.77993085 -42.64500999 92.80884743 C-42.6498863 90.27110424 -42.66152976 87.73336474 -42.68004799 85.19568443 C-42.70434762 81.6454128 -42.70349081 78.09598331 -42.6965332 74.5456543 C-42.70934326 73.49660416 -42.72215332 72.44755402 -42.73535156 71.36671448 C-42.68086817 63.743702 -41.27667906 60.40558531 -35.8515625 54.98046875 C-30.1225535 52.4122923 -24.40029455 53.10313905 -18.2265625 53.35546875 C-17.99146973 52.41364746 -17.75637695 51.47182617 -17.51416016 50.50146484 C-16.61690914 46.90836375 -15.71819457 43.31563005 -14.81896973 39.72302246 C-14.43024075 38.16946825 -14.04180322 36.61584108 -13.65368652 35.06213379 C-12.50725417 30.47418975 -11.35287914 25.88835253 -10.18945312 21.3046875 C-9.79135142 19.73079706 -9.39592183 18.15622873 -9.00292969 16.58105469 C-8.42516764 14.26716971 -7.83854915 11.95569257 -7.25 9.64453125 C-7.07600677 8.93946442 -6.90201355 8.23439758 -6.7227478 7.50796509 C-4.92900884 0.5430264 -4.92900884 0.5430264 0 0 Z " fill="#514960" transform="translate(42.2265625,-0.35546875)"/>
<path d="M0 0 C0.53880326 0.16215311 1.07760653 0.32430622 1.63273716 0.49137306 C4.43607182 1.09369381 7.00736023 1.13100937 9.87620544 1.13803101 C11.07770233 1.14348434 12.27919922 1.14893768 13.5171051 1.15455627 C15.48948402 1.15611977 15.48948402 1.15611977 17.50170898 1.15771484 C18.9030371 1.16238499 20.3043637 1.16752889 21.70568848 1.17311096 C24.72149449 1.18437827 27.7372907 1.19281894 30.75311089 1.19923019 C35.52254277 1.20992083 40.291904 1.23016762 45.06129456 1.25234985 C58.62294282 1.31424128 72.18458641 1.36830659 85.74633789 1.40136719 C93.23780277 1.41970978 100.72914877 1.44863829 108.22052628 1.4893719 C112.18391239 1.51044257 116.14714872 1.52589929 120.1105938 1.52817917 C123.83794119 1.53032589 127.56497639 1.5461973 131.2922287 1.57256889 C133.31058006 1.58318924 135.32899232 1.57900806 137.34736633 1.5743866 C138.55168304 1.58547958 139.75599976 1.59657257 140.99681091 1.60800171 C142.04153785 1.61131186 143.08626478 1.614622 144.16265011 1.61803246 C147.44596869 2.06003686 149.33094206 3.06987883 152 5 C153.89846967 7.79887041 154.24306361 9.98554711 154.1953125 13.328125 C154.19031738 14.0490332 154.18532227 14.76994141 154.18017578 15.51269531 C154.16196777 16.41600586 154.14375977 17.31931641 154.125 18.25 C154.08375 21.1375 154.0425 24.025 154 27 C144.76 27.33 135.52 27.66 126 28 C125.505 30.475 125.505 30.475 125 33 C125.99411455 34.21480284 125.99411455 34.21480284 127.94252014 34.12025452 C128.79301437 34.11803391 129.64350861 34.11581329 130.51977539 34.11352539 C131.48069595 34.11344986 132.44161652 34.11337433 133.43165588 34.11329651 C134.476436 34.10813522 135.52121613 34.10297394 136.59765625 34.09765625 C138.19364906 34.09553383 138.19364906 34.09553383 139.82188416 34.09336853 C143.23545083 34.08775064 146.648953 34.07519511 150.0625 34.0625 C152.37044176 34.05748731 154.67838455 34.052924 156.98632812 34.04882812 C162.65757426 34.0377754 168.32878253 34.02101987 174 34 C174.14541967 38.22880411 174.23411527 42.45696413 174.3125 46.6875 C174.3753418 48.48477539 174.3753418 48.48477539 174.43945312 50.31835938 C174.56028038 58.99375597 174.56028038 58.99375597 172.93505859 61.91259766 C170.02837785 64.8790559 167.65943587 65.97168133 163.57293701 66.14717102 C162.07047812 66.16232798 160.56795606 66.17181027 159.06542969 66.17700195 C158.24572189 66.18357315 157.4260141 66.19014435 156.58146667 66.19691467 C153.8616019 66.21666722 151.14179242 66.22831532 148.421875 66.23828125 C147.02920788 66.24439454 147.02920788 66.24439454 145.60840607 66.25063133 C140.69320395 66.27150158 135.77802983 66.2857985 130.86279297 66.29516602 C125.78734239 66.30622541 120.71233084 66.34061714 115.63703537 66.38033772 C111.73363433 66.40649459 107.83033797 66.41485708 103.92685699 66.41844749 C102.05617563 66.42331678 100.18549904 66.43494051 98.31490326 66.45348549 C95.69363241 66.47785471 93.07349808 66.47691601 90.45214844 66.4699707 C89.68204941 66.48278076 88.91195038 66.49559082 88.11851501 66.50878906 C82.91907743 66.45868372 80.00901155 65.27106442 76 62 C71.7914348 57.22270977 70.68904887 54.49694558 70.7890625 48.24609375 C71.22162713 43.64008146 73.67158679 41.16443147 77 38.25 C80.43338824 35.67495882 82.83987516 34.90316447 87.01171875 34.68359375 C87.76904297 34.64169922 88.52636719 34.59980469 89.30664062 34.55664062 C90.09232422 34.51732422 90.87800781 34.47800781 91.6875 34.4375 C92.48478516 34.39431641 93.28207031 34.35113281 94.10351562 34.30664062 C96.06881447 34.20072632 98.03438496 34.09987449 100 34 C100.042721 32.33388095 100.04063832 30.66617115 100 29 C97.71161976 26.71161976 91.84312898 27.68986834 88.65332031 27.6809082 C81.10172548 27.80380795 76.151978 29.54846156 70.1875 34.1875 C65.55687765 40.1411573 63.27110668 45.97948961 63.61328125 53.578125 C64.6381422 59.99644609 68.00985088 64.91715072 73 69 C80.71487008 74.19066102 88.80278681 73.6046522 97.75 73.609375 C99.37526077 73.62437282 101.0005064 73.64110331 102.62573242 73.65948486 C106.88027689 73.70299131 111.13461581 73.72312012 115.38934326 73.73822021 C119.7401537 73.75785191 124.09074412 73.79981491 128.44140625 73.83984375 C136.96087965 73.91496465 145.48026622 73.96536538 154 74 C154.08120751 76.89640118 154.14059421 79.79050912 154.1875 82.6875 C154.21263672 83.50412109 154.23777344 84.32074219 154.26367188 85.16210938 C154.32096267 89.87905174 154.33637533 93.35231987 151 97 C144.83064457 100.7985202 138.62591783 100.40626115 131.54711914 100.34057617 C130.30739349 100.34101425 129.06766785 100.34145233 127.79037476 100.34190369 C124.40844745 100.34017771 121.02707659 100.32518281 117.6452477 100.30418181 C114.10453398 100.2853664 110.56381203 100.28366076 107.02305603 100.28010559 C100.32605884 100.27079935 93.62920941 100.24620498 86.93227714 100.21605712 C79.30471131 100.1824687 71.67713824 100.16601597 64.0495168 100.15097082 C48.36624451 100.11965399 32.68317565 100.0646599 17 100 C16.67 85.15 16.34 70.3 16 55 C14.35 55 12.7 55 11 55 C10.67 69.52 10.34 84.04 10 99 C4 98 4 98 1.65338135 96.00654602 C-0.62009901 91.87239794 -0.53253913 88.54030034 -0.45410156 83.89526367 C-0.45468567 82.98745148 -0.45526978 82.07963928 -0.45587158 81.14431763 C-0.4530909 78.15180871 -0.42199938 75.16030308 -0.390625 72.16796875 C-0.38316256 70.09003748 -0.37746964 68.01209916 -0.37347412 65.93415833 C-0.35821809 60.47104384 -0.31893619 55.00835624 -0.2746582 49.54541016 C-0.23370505 43.96848322 -0.21546299 38.39148716 -0.1953125 32.81445312 C-0.15244219 21.87611475 -0.08419094 10.93809291 0 0 Z " fill="#F0E1D0" transform="translate(8,83)"/>
<path d="M0 0 C0.81210938 -0.03738281 1.62421875 -0.07476562 2.4609375 -0.11328125 C6.80982346 -0.17702714 8.62577509 -0.13534026 12.09765625 2.703125 C12.80792969 3.58484375 13.51820312 4.4665625 14.25 5.375 C16.04109702 6.93278779 17.86419658 8.43986194 19.69921875 9.9453125 C22.61097593 12.62970325 23.23923866 14.2521205 23.5859375 18.2109375 C23.60982521 19.72382578 23.62244413 21.2369253 23.625 22.75 C23.64949219 23.50539063 23.67398438 24.26078125 23.69921875 25.0390625 C23.71974844 28.95339078 23.5532715 30.90061953 21.39453125 34.27734375 C19.1324127 36.49001709 16.73900348 38.42415944 14.25 40.375 C13.755 41.365 13.755 41.365 13.25 42.375 C6.98 42.375 0.71 42.375 -5.75 42.375 C-6.74 40.065 -7.73 37.755 -8.75 35.375 C-12.0958782 31.39563553 -15.78034569 29.76574399 -20.828125 29.1015625 C-26.10818851 28.85465306 -29.65213255 29.7055439 -34.01953125 32.73046875 C-36.96828897 35.53278704 -38.22725202 38.63157789 -39.75 42.375 C-42.72 42.375 -45.69 42.375 -48.75 42.375 C-46.85850343 38.59200686 -45.31076658 36.70154889 -42.35546875 33.78515625 C-41.48212891 32.91826172 -40.60878906 32.05136719 -39.70898438 31.15820312 C-38.79439453 30.26037109 -37.87980469 29.36253906 -36.9375 28.4375 C-36.03451172 27.54353516 -35.13152344 26.64957031 -34.20117188 25.72851562 C-32.51033312 24.05506977 -30.81744422 22.38369095 -29.12182617 20.71508789 C-24.52996292 16.18495748 -24.52996292 16.18495748 -20.01953125 11.57421875 C-18.63426073 10.13695416 -17.193214 8.75407116 -15.75 7.375 C-15.09 7.375 -14.43 7.375 -13.75 7.375 C-13.75 6.715 -13.75 6.055 -13.75 5.375 C-13.09 5.375 -12.43 5.375 -11.75 5.375 C-11.440625 4.735625 -11.13125 4.09625 -10.8125 3.4375 C-8.50008963 -1.0512966 -4.56087401 0.07814582 0 0 Z " fill="#EEDFCF" transform="translate(111.75,34.625)"/>
<path d="M0 0 C3.96858232 0.48037983 5.8007763 2.41056152 8.60083008 5.1809082 C9.95661919 6.51282951 9.95661919 6.51282951 11.33979797 7.87165833 C12.31690727 8.8475007 13.29347229 9.82388831 14.26953125 10.80078125 C15.27482722 11.79897663 16.2804213 12.79687186 17.28630066 13.79447937 C19.39034391 15.88508395 21.48836204 17.98152542 23.58276367 20.08178711 C26.27073601 22.77566797 28.97654078 25.45081815 31.6875658 28.12147236 C33.76793562 30.17603296 35.83676734 32.24191306 37.90244102 34.31123924 C38.89568783 35.30278976 39.89293683 36.29034764 40.89417458 37.27382851 C42.29000236 38.64759596 43.66853706 40.03886825 45.04614258 41.4309082 C45.83571854 42.21842972 46.62529449 43.00595123 47.438797 43.81733704 C49 46 49 46 48.84672546 48.18351746 C47.77560816 50.48138845 46.48970744 51.56748311 44.5 53.125 C41.8119616 55.19887681 41.8119616 55.19887681 40 58 C39.34 58 38.68 58 38 58 C37.773125 58.556875 37.54625 59.11375 37.3125 59.6875 C35.57204473 62.75401643 33.73209236 64.7646517 31 67 C27.6875 67.3125 27.6875 67.3125 25 67 C25 66.34 25 65.68 25 65 C25.66 65 26.32 65 27 65 C27 64.34 27 63.68 27 63 C28.010625 62.2575 29.02125 61.515 30.0625 60.75 C31.74364509 59.50368735 31.74364509 59.50368735 33 58 C33.00422567 54.13702641 33.00422567 54.13702641 31 51 C30.64102564 44.53846154 30.64102564 44.53846154 33 41 C33.16713569 38.37468476 33.16713569 38.37468476 33 36 C32.34 36 31.68 36 31 36 C29.375 34.625 29.375 34.625 28 33 C28 32.34 28 31.68 28 31 C27.34 31 26.68 31 26 31 C26 30.34 26 29.68 26 29 C25.34 29 24.68 29 24 29 C23.443125 28.29875 22.88625 27.5975 22.3125 26.875 C19.93414061 23.91812076 17.41983899 21.71117554 14.48828125 19.33203125 C13 18 13 18 12 16 C8.39007621 16.65585189 8.39007621 16.65585189 5 18 C-1.47058824 18.35294118 -1.47058824 18.35294118 -5 16 C-9.00346023 15.55709077 -9.00346023 15.55709077 -11.25 18 C-12.16871917 18.99811465 -13.08507917 19.99840245 -14 21 C-15.32792434 22.33872047 -16.66164475 23.67170757 -18 25 C-18.639375 25.639375 -19.27875 26.27875 -19.9375 26.9375 C-40.75 47.75 -40.75 47.75 -42.99707031 49.99682617 C-44.59759954 51.59755049 -46.19736559 53.19903789 -47.796875 54.80078125 C-49.26042598 56.26173728 -50.72915784 57.71752234 -52.203125 59.16796875 C-52.87859375 59.83441406 -53.5540625 60.50085938 -54.25 61.1875 C-54.93578125 61.86167969 -55.6215625 62.53585938 -56.328125 63.23046875 C-58.07449111 64.90798995 -58.07449111 64.90798995 -59 67 C-60.98 67 -62.96 67 -65 67 C-63.34603457 62.76410849 -60.20381801 59.90105953 -57.05322266 56.74682617 C-56.44488083 56.13016083 -55.836539 55.51349548 -55.20976257 54.87814331 C-53.1999692 52.84427942 -51.18261906 50.81813347 -49.1640625 48.79296875 C-47.76395019 47.38389172 -46.36391667 45.97473639 -44.96395874 44.56550598 C-42.03047469 41.61554011 -39.09263193 38.66998982 -36.15234375 35.72680664 C-32.37850508 31.94756848 -28.62110667 28.15242087 -24.86744118 24.3531599 C-21.98315595 21.43920246 -19.08775196 18.53649352 -16.18909836 15.6368351 C-14.79828665 14.24180573 -13.41161397 12.84263749 -12.02913284 11.43935204 C-10.09950636 9.48300169 -8.1548572 7.54293079 -6.20556641 5.60620117 C-5.63399307 5.01979355 -5.06241974 4.43338593 -4.473526 3.82920837 C-2.85928345 2.24455261 -2.85928345 2.24455261 0 0 Z " fill="#E8DACB" transform="translate(111,10)"/>
<path d="M0 0 C1.13308594 0.12375 1.13308594 0.12375 2.2890625 0.25 C3.03929687 0.311875 3.78953125 0.37375 4.5625 0.4375 C8.06969765 1.64928922 9.59646556 3.35772975 11.9140625 6.25 C12.63551875 9.13004179 12.61603323 11.91717743 12.578125 14.875 C12.58290863 15.6995166 12.58769226 16.5240332 12.59262085 17.37353516 C12.59601372 19.11167313 12.58685403 20.84987544 12.56591797 22.58789062 C12.53913979 25.24233825 12.56568246 27.89255825 12.59765625 30.546875 C12.59435204 32.23959263 12.58794556 33.93230763 12.578125 35.625 C12.58824615 36.41471191 12.59836731 37.20442383 12.60879517 38.01806641 C12.52027467 42.19826996 12.23253418 43.83248275 9.61083984 47.26953125 C6.18779959 49.78335549 4.06573669 49.65702688 -0.0859375 49.25 C-0.09004639 48.68603516 -0.09415527 48.12207031 -0.09838867 47.54101562 C-0.13163515 44.94300297 -0.2023052 42.34724077 -0.2734375 39.75 C-0.27923828 38.863125 -0.28503906 37.97625 -0.29101562 37.0625 C-0.50148928 30.70151855 -1.83414629 26.10268361 -6.0859375 21.25 C-8.36008974 19.53894067 -10.47949586 18.48213605 -13.0859375 17.25 C-14.42068027 16.58615968 -15.754357 15.92016087 -17.0859375 15.25 C-13.0859375 11.25 -9.0859375 7.25 -5.0859375 3.25 C-4.63476562 2.70859375 -4.18359375 2.1671875 -3.71875 1.609375 C-2.0859375 0.25 -2.0859375 0.25 0 0 Z " fill="#F0E1D1" transform="translate(170.0859375,60.75)"/>
<path d="M0 0 C6.32819477 0.73873441 12.39359723 2.24421668 18.5625 3.8125 C19.62210938 4.07949707 20.68171875 4.34649414 21.7734375 4.62158203 C29.56125722 6.59825239 37.30191652 8.69599614 45 11 C44.34 12.32 43.68 13.64 43 15 C37.30147855 14.06310576 31.73818604 12.983784 26.1875 11.375 C20.66009493 9.72531771 20.66009493 9.72531771 15 10 C12.62772382 12.84968468 12.62772382 12.84968468 11 16 C9.41727399 17.58272601 7.61965997 17.34735747 5.4375 17.5625 C4.19806641 17.68818359 4.19806641 17.68818359 2.93359375 17.81640625 C2.29550781 17.87699219 1.65742187 17.93757813 1 18 C-1.49892812 26.48165604 -3.79454516 35.00071851 -6 43.5625 C-8.1206751 51.78446165 -10.3652946 59.92540287 -13 68 C-14.65 68 -16.3 68 -18 68 C-17.35742188 65.52148438 -17.35742188 65.52148438 -16.71484375 63.04296875 C-16.43487549 61.96297607 -16.15490723 60.8829834 -15.86645508 59.77026367 C-15.24021554 57.35500342 -14.61374575 54.93980286 -13.98706055 52.5246582 C-12.35845761 46.24696436 -10.7333019 39.96842409 -9.1171875 33.6875 C-3.2644777 10.96945613 -3.2644777 10.96945613 0 0 Z " fill="#E9DACB" transform="translate(44,9)"/>
<path d="M0 0 C4.81788264 0.41521128 9.23705491 1.31859487 13.75390625 3.1015625 C12.363101 6.23894404 10.74368421 8.35631531 8.31396484 10.76855469 C7.61338959 11.46897888 6.91281433 12.16940308 6.19100952 12.89105225 C5.05811996 14.00845795 5.05811996 14.00845795 3.90234375 15.1484375 C3.12831207 15.91963928 2.3542804 16.69084106 1.55679321 17.4854126 C-0.91451298 19.94553106 -3.39268558 22.39860098 -5.87109375 24.8515625 C-7.54863427 26.51907144 -9.2257232 28.18703482 -10.90234375 29.85546875 C-15.01170294 33.9427862 -19.12672022 38.02433946 -23.24609375 42.1015625 C-24.5931364 38.06043456 -23.3038163 35.25608857 -22.05859375 31.3515625 C-20.63948781 26.84284357 -19.25176023 22.39172494 -18.3359375 17.75 C-16.32242542 7.84502863 -16.32242542 7.84502863 -13.13671875 5.64453125 C-10.74609375 4.9140625 -10.74609375 4.9140625 -8.3359375 4.51171875 C-5.99209844 4.27522752 -5.99209844 4.27522752 -4.30859375 1.8515625 C-2.24609375 0.1015625 -2.24609375 0.1015625 0 0 Z " fill="#EEDFCF" transform="translate(65.24609375,26.8984375)"/>
<path d="M0 0 C2.79348323 1.2415481 4.45140815 2.32672818 6.375 4.6875 C7.34807567 8.28787999 7.10039604 11.4437532 6 15 C3.80905241 17.73868449 2.25952102 18.76426077 -1.19140625 19.41015625 C-5.25961315 19.67154022 -7.29253901 19.58365532 -10.5 16.9375 C-12.30516086 13.40239331 -13 10.98361155 -13 7 C-9.51086842 0.50299636 -7.26338252 -0.49243271 0 0 Z " fill="#584F65" transform="translate(97,124)"/>
<path d="M0 0 C0.08745946 3.3956697 0.14054444 6.79104773 0.1875 10.1875 C0.22520508 11.62706055 0.22520508 11.62706055 0.26367188 13.09570312 C0.35788163 22.17124301 0.35788163 22.17124301 -3 26 C-7.0924622 28.19780377 -10.34031562 29.42360767 -15 29 C-14.52433594 27.83597656 -14.52433594 27.83597656 -14.0390625 26.6484375 C-12.70105666 21.95032677 -12.54144863 17.48668711 -12.375 12.625 C-12.33632812 11.69816406 -12.29765625 10.77132812 -12.2578125 9.81640625 C-12.16412409 7.5444623 -12.07840652 5.27251404 -12 3 C-10.34097656 2.78537109 -10.34097656 2.78537109 -8.6484375 2.56640625 C-5.85446776 2.13265292 -2.6182754 0 0 0 Z " fill="#EFE0CF" transform="translate(182,154)"/>
<path d="M0 0 C-0.28484846 1.73030291 -0.57819938 3.45920714 -0.875 5.1875 C-1.03742187 6.15042969 -1.19984375 7.11335938 -1.3671875 8.10546875 C-1.98039517 10.91032604 -2.85666343 13.37224747 -4 16 C-7.45669582 16.31424507 -9.39901677 16.37956836 -12.375 14.5 C-14.66556244 10.97605778 -14.78746089 8.08809483 -14 4 C-10.9733152 -1.50306327 -5.53719757 -0.38041815 0 0 Z " fill="#ECDDCE" transform="translate(22,61)"/>
<path d="M0 0 C4.79635874 0.25142203 7.49755838 1.07162453 10.9375 4.7265625 C10.9375 5.3865625 10.9375 6.0465625 10.9375 6.7265625 C4.9975 6.7265625 -0.9425 6.7265625 -7.0625 6.7265625 C-2.0625 0.7265625 -2.0625 0.7265625 0 0 Z " fill="#E8D9CB" transform="translate(87.0625,70.2734375)"/>
<path d="M0 0 C1.125 4.75 1.125 4.75 0 7 C-2.375 7.125 -2.375 7.125 -5 7 C-5.66 6.34 -6.32 5.68 -7 5 C-6.75 2.4375 -6.75 2.4375 -6 0 C-3.50907189 -1.24546405 -2.58919267 -0.7767578 0 0 Z " fill="#5B5267" transform="translate(124,111)"/>
<path d="M0 0 C3.53571429 0.53571429 3.53571429 0.53571429 5 2 C5.125 4.5 5.125 4.5 5 7 C4 8 4 8 1.5 8.125 C-1 8 -1 8 -2 7 C-2.1875 4.5625 -2.1875 4.5625 -2 2 C-1.34 1.34 -0.68 0.68 0 0 Z " fill="#574F64" transform="translate(20,122)"/>
</svg>
