<?xml version="1.0" encoding="UTF-8"?>
<svg version="1.1" xmlns="http://www.w3.org/2000/svg" width="190" height="198">
<path d="M0 0 C2.66542647 2.25150142 4.43665877 4.87331754 6 8 C6.08963847 9.48100811 6.11757925 10.96599424 6.11352539 12.44970703 C6.11341209 13.83091232 6.11341209 13.83091232 6.11329651 15.24002075 C6.10813522 16.23589203 6.10297394 17.23176331 6.09765625 18.2578125 C6.0962413 19.27600067 6.09482635 20.29418884 6.09336853 21.3432312 C6.087759 24.60385035 6.07520488 27.86440151 6.0625 31.125 C6.05748623 33.33203026 6.05292311 35.53906159 6.04882812 37.74609375 C6.03778648 43.16408581 6.02103905 48.58203805 6 54 C7.63956665 54.28351318 7.63956665 54.28351318 9.31225586 54.57275391 C17.7579118 56.04183005 26.18712408 57.53998055 34.5625 59.375 C35.46806641 59.55804688 36.37363281 59.74109375 37.30664062 59.9296875 C44.16587542 61.43961319 50.15399996 63.70081524 54.83984375 69.1328125 C55.20207031 69.79023437 55.56429687 70.44765625 55.9375 71.125 C56.31777344 71.78757812 56.69804687 72.45015625 57.08984375 73.1328125 C59.14416291 77.34725266 59.1922548 81.16589708 59.1875 85.75 C59.18669434 86.57894775 59.18588867 87.40789551 59.18505859 88.26196289 C59.10401807 97.43940469 58.69144246 106.60575315 58.25234985 115.77185059 C58.16761926 117.54540627 58.08555676 119.31909147 58.00619507 121.09289551 C57.89110785 123.62369043 57.76378044 126.1535765 57.6328125 128.68359375 C57.59937241 129.44749924 57.56593231 130.21140472 57.53147888 130.99845886 C57.30375853 135.09026492 56.61346311 138.25651997 55 142 C45.73368442 142.23211976 36.46837497 142.40958544 27.19978237 142.51812172 C22.89540587 142.57022678 18.59302352 142.64083668 14.28979492 142.75439453 C10.13341401 142.86338561 5.97894514 142.92290647 1.82124519 142.94877243 C0.23859613 142.96719301 -1.3439528 143.00317021 -2.92578316 143.05730057 C-15.32482104 143.46456153 -15.32482104 143.46456153 -19.28102112 140.00576782 C-21.01025391 137.46972656 -21.01025391 137.46972656 -22.50727844 134.71951294 C-24.96072713 130.24970045 -28.63636827 127.03166614 -32.26953125 123.5078125 C-33.41285164 122.3779744 -33.41285164 122.3779744 -34.57926941 121.22531128 C-36.98316834 118.85111485 -39.39685679 116.48724148 -41.8125 114.125 C-44.24500689 111.74038752 -46.67513746 109.35352586 -49.09928894 106.9604187 C-50.59998261 105.47942887 -52.10558573 104.0033931 -53.61665344 102.5329895 C-54.63362556 101.53076859 -54.63362556 101.53076859 -55.67114258 100.50830078 C-56.56546745 99.63421066 -56.56546745 99.63421066 -57.4778595 98.74246216 C-61.11668817 94.57693259 -61.43899784 90.84090824 -61.3125 85.47265625 C-60.84228626 81.75209001 -59.52775595 79.72731563 -57 77 C-53.14159778 74.36927121 -49.88500309 73.65238863 -45.22265625 73.50390625 C-38.42843917 75.02036595 -33.70201831 79.90274207 -29.0625 84.75 C-28.17981445 85.65298828 -28.17981445 85.65298828 -27.27929688 86.57421875 C-25.84583171 88.04264648 -24.421899 89.52036977 -23 91 C-22.99635437 89.97349335 -22.99270874 88.94698669 -22.98895264 87.88937378 C-22.95198534 78.20783088 -22.89419367 68.52660553 -22.81609726 58.84530449 C-22.77661542 53.86821056 -22.74443037 48.89129374 -22.72900391 43.9140625 C-22.71384203 39.10926376 -22.67940471 34.30495192 -22.63169098 29.50037003 C-22.61687236 27.66883708 -22.60895871 25.83723463 -22.60811615 24.00564194 C-22.60574616 21.43666641 -22.57866509 18.86903611 -22.54589844 16.30029297 C-22.55344398 15.16848351 -22.55344398 15.16848351 -22.56114197 14.0138092 C-22.46010506 8.88220953 -21.23477662 5.95483051 -18 2 C-12.02080936 -2.33491322 -6.81713777 -2.70984264 0 0 Z " fill="#EFE0D0" transform="translate(103,56)"/>
<path d="M0 0 C2.66542647 2.25150142 4.43665877 4.87331754 6 8 C6.08963847 9.48100811 6.11757925 10.96599424 6.11352539 12.44970703 C6.11341209 13.83091232 6.11341209 13.83091232 6.11329651 15.24002075 C6.10813522 16.23589203 6.10297394 17.23176331 6.09765625 18.2578125 C6.0962413 19.27600067 6.09482635 20.29418884 6.09336853 21.3432312 C6.087759 24.60385035 6.07520488 27.86440151 6.0625 31.125 C6.05748623 33.33203026 6.05292311 35.53906159 6.04882812 37.74609375 C6.03778648 43.16408581 6.02103905 48.58203805 6 54 C7.63956665 54.28351318 7.63956665 54.28351318 9.31225586 54.57275391 C17.7579118 56.04183005 26.18712408 57.53998055 34.5625 59.375 C35.46806641 59.55804688 36.37363281 59.74109375 37.30664062 59.9296875 C44.16587542 61.43961319 50.15399996 63.70081524 54.83984375 69.1328125 C55.20207031 69.79023437 55.56429687 70.44765625 55.9375 71.125 C56.31777344 71.78757812 56.69804687 72.45015625 57.08984375 73.1328125 C59.14416291 77.34725266 59.1922548 81.16589708 59.1875 85.75 C59.18669434 86.57894775 59.18588867 87.40789551 59.18505859 88.26196289 C59.10401807 97.43940469 58.69144246 106.60575315 58.25234985 115.77185059 C58.16761926 117.54540627 58.08555676 119.31909147 58.00619507 121.09289551 C57.89110785 123.62369043 57.76378044 126.1535765 57.6328125 128.68359375 C57.59937241 129.44749924 57.56593231 130.21140472 57.53147888 130.99845886 C57.30375853 135.09026492 56.61346311 138.25651997 55 142 C45.73368442 142.23211976 36.46837497 142.40958544 27.19978237 142.51812172 C22.89540587 142.57022678 18.59302352 142.64083668 14.28979492 142.75439453 C10.13341401 142.86338561 5.97894514 142.92290647 1.82124519 142.94877243 C0.23859613 142.96719301 -1.3439528 143.00317021 -2.92578316 143.05730057 C-15.32482104 143.46456153 -15.32482104 143.46456153 -19.28102112 140.00576782 C-21.01025391 137.46972656 -21.01025391 137.46972656 -22.50727844 134.71951294 C-24.96072713 130.24970045 -28.63636827 127.03166614 -32.26953125 123.5078125 C-33.41285164 122.3779744 -33.41285164 122.3779744 -34.57926941 121.22531128 C-36.98316834 118.85111485 -39.39685679 116.48724148 -41.8125 114.125 C-44.24500689 111.74038752 -46.67513746 109.35352586 -49.09928894 106.9604187 C-50.59998261 105.47942887 -52.10558573 104.0033931 -53.61665344 102.5329895 C-54.63362556 101.53076859 -54.63362556 101.53076859 -55.67114258 100.50830078 C-56.56546745 99.63421066 -56.56546745 99.63421066 -57.4778595 98.74246216 C-61.11668817 94.57693259 -61.43899784 90.84090824 -61.3125 85.47265625 C-60.84228626 81.75209001 -59.52775595 79.72731563 -57 77 C-53.14159778 74.36927121 -49.88500309 73.65238863 -45.22265625 73.50390625 C-38.42843917 75.02036595 -33.70201831 79.90274207 -29.0625 84.75 C-28.17981445 85.65298828 -28.17981445 85.65298828 -27.27929688 86.57421875 C-25.84583171 88.04264648 -24.421899 89.52036977 -23 91 C-22.99635437 89.97349335 -22.99270874 88.94698669 -22.98895264 87.88937378 C-22.95198534 78.20783088 -22.89419367 68.52660553 -22.81609726 58.84530449 C-22.77661542 53.86821056 -22.74443037 48.89129374 -22.72900391 43.9140625 C-22.71384203 39.10926376 -22.67940471 34.30495192 -22.63169098 29.50037003 C-22.61687236 27.66883708 -22.60895871 25.83723463 -22.60811615 24.00564194 C-22.60574616 21.43666641 -22.57866509 18.86903611 -22.54589844 16.30029297 C-22.55344398 15.16848351 -22.55344398 15.16848351 -22.56114197 14.0138092 C-22.46010506 8.88220953 -21.23477662 5.95483051 -18 2 C-12.02080936 -2.33491322 -6.81713777 -2.70984264 0 0 Z M-12.62532043 8.45782471 C-14.69776363 12.29036432 -14.43942384 15.88102157 -14.43237305 20.17480469 C-14.4425647 21.101978 -14.45275635 22.02915131 -14.46325684 22.98442078 C-14.49343461 26.04696661 -14.50266018 29.10919989 -14.51171875 32.171875 C-14.52856187 34.29609216 -14.54671161 36.42029933 -14.56611633 38.54449463 C-14.61366218 44.13398111 -14.64344199 49.72342709 -14.66955566 55.31304932 C-14.69933797 61.01737466 -14.74587632 66.72156041 -14.79101562 72.42578125 C-14.87710097 83.61711455 -14.94442307 94.80847653 -15 106 C-19.68255615 106.24847412 -19.68255615 106.24847412 -22.53955078 104.01220703 C-23.41595215 103.10325684 -24.29235352 102.19430664 -25.1953125 101.2578125 C-25.66943573 100.77424286 -26.14355896 100.29067322 -26.63204956 99.79244995 C-28.14195349 98.2480158 -29.63376714 96.68745018 -31.125 95.125 C-32.62668906 93.57327068 -34.13189572 92.02507841 -35.63937378 90.47897339 C-37.00564765 89.07429501 -38.36268397 87.66064924 -39.71923828 86.24658203 C-41.98415883 83.87427185 -41.98415883 83.87427185 -45 82 C-47.76653462 82.2074901 -49.53071623 82.70278694 -51.875 84.1875 C-53.21660253 86.01036539 -53.21660253 86.01036539 -53.07568359 88.58178711 C-51.42723263 93.82008987 -47.81593363 96.75953491 -43.9140625 100.50390625 C-43.10133881 101.30481186 -42.28861511 102.10571747 -41.45126343 102.93089294 C-38.85408119 105.48688837 -36.24067298 108.02544146 -33.625 110.5625 C-31.01910408 113.10562932 -28.41688261 115.65232316 -25.82015991 118.20481873 C-24.2045208 119.79132716 -22.58315984 121.37203476 -20.95547485 122.94618225 C-20.21816132 123.66720627 -19.48084778 124.38823029 -18.72119141 125.13110352 C-18.07356842 125.75920425 -17.42594543 126.38730499 -16.75869751 127.03443909 C-15 129 -15 129 -13.63294983 131.70632935 C-12.19594355 134.26317269 -12.19594355 134.26317269 -9.36140442 134.60127258 C-8.3021727 134.59016953 -7.24294098 134.57906647 -6.15161133 134.56762695 C-4.9505928 134.5672493 -3.74957428 134.56687164 -2.51216125 134.56648254 C-1.21521835 134.54067612 0.08172455 134.51486969 1.41796875 134.48828125 C2.75888248 134.47895396 4.09981326 134.47183744 5.44075012 134.46684265 C8.96755138 134.44776531 12.49332051 134.39866102 16.01971436 134.34332275 C19.61912065 134.29214444 23.21869399 134.26933182 26.81835938 134.24414062 C33.87932813 134.19054093 40.93959663 134.10522104 48 134 C49.24414323 120.31366796 50.39040963 106.68424266 50.5 92.9375 C50.520625 92.25905029 50.54125 91.58060059 50.5625 90.8815918 C51.05985717 81.68730755 51.05985717 81.68730755 47.21875 73.69140625 C43.08914041 69.67818852 38.76592486 68.63962906 33.1875 67.6875 C25.96452768 66.40758862 18.7936352 64.92994692 11.625 63.375 C10.09975708 63.04761841 10.09975708 63.04761841 8.54370117 62.71362305 C7.59342041 62.50648682 6.64313965 62.29935059 5.6640625 62.0859375 C4.81279785 61.9007959 3.9615332 61.7156543 3.08447266 61.52490234 C1 61 1 61 -1 60 C-1.00546844 59.09251007 -1.00546844 59.09251007 -1.01104736 58.16668701 C-1.05284362 51.87228928 -1.12216882 45.57862269 -1.20751953 39.28466797 C-1.23575288 36.93545848 -1.25695558 34.58615359 -1.27099609 32.23681641 C-1.29239224 28.86050482 -1.33902737 25.48534333 -1.390625 22.109375 C-1.39185364 21.05820496 -1.39308228 20.00703491 -1.39434814 18.92401123 C-1.41988743 13.26693936 -1.41988743 13.26693936 -3.87792969 8.33691406 C-7.12508063 6.29119402 -9.63670998 5.77720243 -12.62532043 8.45782471 Z " fill="#4F465E" transform="translate(103,56)"/>
<path d="M0 0 C3.11627037 2.44624064 5.92474399 5.02953199 8.625 7.9375 C9.45837891 8.81535156 9.45837891 8.81535156 10.30859375 9.7109375 C14.64115573 14.42551033 17.72950076 19.24739 20.625 24.9375 C20.98464844 25.56140625 21.34429687 26.1853125 21.71484375 26.828125 C26.39320381 35.23151891 29.12577362 46.32865069 27.625 55.9375 C25.625 57.9375 25.625 57.9375 23.125 58.1875 C20.625 57.9375 20.625 57.9375 18.625 55.9375 C18.14059787 53.35008376 17.73939598 50.79162577 17.375 48.1875 C15.42218212 35.97332345 11.20901289 25.0891931 2.625 15.9375 C1.93019531 15.18984375 1.23539062 14.4421875 0.51953125 13.671875 C-12.05912852 1.28284327 -27.3216664 -3.47992336 -44.60058594 -3.42822266 C-52.5363222 -3.29105246 -59.07456015 -2.35847917 -66.375 0.9375 C-67.32246094 1.36160156 -68.26992187 1.78570312 -69.24609375 2.22265625 C-76.92055858 6.04392237 -83.18679728 11.41625947 -88.99609375 17.6875 C-90.375 18.9375 -90.375 18.9375 -92.9375 19.25 C-95.375 18.9375 -95.375 18.9375 -97.375 16.9375 C-97.92016707 13.57563642 -97.63452651 12.29782475 -95.625 9.5078125 C-71.45797675 -18.09965504 -29.07516587 -21.10119314 0 0 Z " fill="#4D445D" transform="translate(137.375,13.0625)"/>
<path d="M0 0 C2 3 2 3 1.75 5.0625 C1 7 1 7 -1 9 C-6.03914311 8.51008331 -10.47793577 6.16784451 -15.0625 4.15625 C-24.69990873 0.36280188 -34.38949677 1.68343418 -44 5 C-55.80590883 10.31521437 -62.46031751 19.11499435 -67 31 C-68.01775851 34.05327552 -68.10208344 36.06331639 -68.0625 39.25390625 C-68.05476563 40.27291016 -68.04703125 41.29191406 -68.0390625 42.34179688 C-68.02617188 43.40462891 -68.01328125 44.46746094 -68 45.5625 C-67.97455688 47.66791809 -67.95350135 49.77339523 -67.9375 51.87890625 C-67.92589844 52.8129126 -67.91429687 53.74691895 -67.90234375 54.70922852 C-68 57 -68 57 -69 59 C-70.98 59 -72.96 59 -75 59 C-78.18666556 53.77081741 -78.54484543 49.514454 -78.5 43.5625 C-78.49427979 42.68231201 -78.48855957 41.80212402 -78.48266602 40.89526367 C-78.15057676 28.5654718 -74.58536867 18.10457023 -66 9 C-65.45472656 8.37738281 -64.90945312 7.75476562 -64.34765625 7.11328125 C-48.03173946 -10.58468967 -19.97276744 -13.0499357 0 0 Z " fill="#4D445D" transform="translate(123,27)"/>
<path d="M0 0 C0.5775 0.37125 1.155 0.7425 1.75 1.125 C2.03078931 5.91281777 1.17575802 9.16563335 -0.6875 13.5625 C-6.73885003 27.8892005 -5.56158914 44.33988528 0.12109375 58.5546875 C3.51451055 65.9925363 7.35283399 71.54272234 13.28125 77.13085938 C14.6875 78.50390625 14.6875 78.50390625 16.75 81.125 C16.67031529 84.58630451 16.20393603 85.67106397 13.75 88.125 C8.54424468 87.75863751 6.30075657 85.2580664 2.8671875 81.6171875 C-10.65129183 65.70429116 -15.41182052 48.02150629 -14.45410156 27.55126953 C-13.68952138 18.46227693 -11.18008479 8.82825748 -6.25 1.125 C-2.76009017 -1.0733684 -2.76009017 -1.0733684 0 0 Z " fill="#4C445D" transform="translate(39.25,34.875)"/>
<path d="M0 0 C1.94140625 1.3203125 1.94140625 1.3203125 4.81640625 3.7578125 C4.81640625 4.4178125 4.81640625 5.0778125 4.81640625 5.7578125 C5.80640625 6.0878125 6.79640625 6.4178125 7.81640625 6.7578125 C14.02889888 14.98067379 15.1470934 23.87916742 14.14111328 33.82226562 C13.38532644 38.3274371 11.36655514 42.03304957 8.81640625 45.7578125 C8.15640625 46.7478125 7.49640625 47.7378125 6.81640625 48.7578125 C4.31640625 49.0703125 4.31640625 49.0703125 1.81640625 48.7578125 C-0.18359375 46.7578125 -0.18359375 46.7578125 -0.55859375 44.0703125 C-0.18359375 40.7578125 -0.18359375 40.7578125 1.81640625 37.6953125 C5.03109456 32.51033136 4.66369223 26.62363853 3.81640625 20.7578125 C2.57780618 17.65396886 0.97810124 15.28918866 -1.18359375 12.7578125 C-1.78171875 11.9946875 -2.37984375 11.2315625 -2.99609375 10.4453125 C-7.762336 6.76849705 -13.17711264 5.21751564 -19.171875 5.46484375 C-23.88168989 6.15073912 -27.94666292 7.92360333 -31.87109375 10.5703125 C-34.18359375 11.7578125 -34.18359375 11.7578125 -36.99609375 10.9453125 C-37.71796875 10.5534375 -38.43984375 10.1615625 -39.18359375 9.7578125 C-39.05859375 6.5078125 -39.05859375 6.5078125 -38.18359375 2.7578125 C-28.13865033 -6.51444296 -11.45196612 -6.51471418 0 0 Z " fill="#4C445D" transform="translate(112.18359375,42.2421875)"/>
<path d="M0 0 C2.65625 0.2890625 2.65625 0.2890625 4.5 1.765625 C14.38258557 14.58501666 16.56058959 28.50796647 14.65625 44.2890625 C12.82639724 53.36745171 7.25826972 64.64885432 -0.34375 70.2890625 C-2.96875 70.7265625 -2.96875 70.7265625 -5.34375 70.2890625 C-7.34375 67.2890625 -7.34375 67.2890625 -7.28125 64.9765625 C-6.25664386 62.03935824 -4.72826855 60.26020474 -2.6796875 57.95703125 C4.39798586 49.12028703 5.56317592 38.36823644 4.90771484 27.45019531 C4.1236629 20.7119159 1.23989391 14.25642034 -2.71875 8.7890625 C-4.34375 6.2890625 -4.34375 6.2890625 -4.15625 3.4765625 C-3.00249838 0.37030813 -3.00249838 0.37030813 0 0 Z " fill="#4C445C" transform="translate(130.34375,35.7109375)"/>
<path d="M0 0 C2.4375 0.125 2.4375 0.125 5 1 C6.69913037 3.94943385 7.04497498 5.62569214 6.63671875 9.0234375 C4.66555241 15.98335817 2.19489522 22.06939135 -1.4375 28.3125 C-1.8085083 28.96460449 -2.1795166 29.61670898 -2.56176758 30.28857422 C-4.29893824 33.1141702 -5.47611037 34.78965634 -8.59765625 36.04296875 C-11 36 -11 36 -14 34 C-14.5 31.3125 -14.5 31.3125 -14 28 C-12.84356858 26.34795511 -11.67652224 24.70127204 -10.43359375 23.11328125 C-6.62327799 17.49643976 -4.59680454 10.64659382 -2.25 4.3125 C-1 1 -1 1 0 0 Z " fill="#4D445D" transform="translate(157,78)"/>
<path d="M0 0 C0.33 0.33 0.66 0.66 1 1 C0.95770766 2.87566509 0.91022175 4.75138433 0.83398438 6.62597656 C0.5642527 14.04987046 0.73955641 19.48664823 4.90625 25.921875 C6.25387213 28.48235704 6.34041316 30.14431186 6 33 C5.34 33.66 4.68 34.32 4 35 C1.6875 35 1.6875 35 -1 34 C-5.77923588 29.22076412 -9.04802699 23.869708 -9.36328125 16.9921875 C-9.36197411 15.6196879 -9.34492243 14.24711721 -9.3125 12.875 C-9.31572266 12.18535156 -9.31894531 11.49570313 -9.32226562 10.78515625 C-9.28018408 6.78358385 -8.89577507 3.55039147 -7 0 C-4.31633121 -1.3418344 -2.84719317 -0.73004953 0 0 Z " fill="#4D445D" transform="translate(73,57)"/>
<path d="M0 0 C2.16015625 -0.359375 2.16015625 -0.359375 5 0 C7.02739765 1.87689215 8.69922811 3.63555329 10.4375 5.75 C13.24396627 9.09694122 15.63785466 11.76169049 19.32421875 14.1875 C20.20722656 14.785625 21.09023437 15.38375 22 16 C22.375 19.25 22.375 19.25 22 22 C19.7734375 23.15234375 19.7734375 23.15234375 17 24 C10.68238823 21.51090561 5.49268434 15.95409516 1 11 C0.34 10.29875 -0.32 9.5975 -1 8.875 C-2 7 -2 7 -1.75 4.375 C-1 2 -1 2 0 0 Z " fill="#4D445D" transform="translate(54,90)"/>
<path d="M0 0 C0.89009766 -0.00128906 1.78019531 -0.00257813 2.69726562 -0.00390625 C3.63376953 -0.00003906 4.57027344 0.00382813 5.53515625 0.0078125 C6.46779297 0.00394531 7.40042969 0.00007812 8.36132812 -0.00390625 C9.25271484 -0.00261719 10.14410156 -0.00132812 11.0625 0 C11.88355225 0.00112793 12.70460449 0.00225586 13.55053711 0.00341797 C15.59765625 0.1328125 15.59765625 0.1328125 17.59765625 1.1328125 C17.64019981 3.13235996 17.63846408 5.13322886 17.59765625 7.1328125 C15.23810114 9.49236761 9.33012799 8.31823655 6.16015625 8.3203125 C5.17982422 8.33255859 4.19949219 8.34480469 3.18945312 8.35742188 C2.25294922 8.35935547 1.31644531 8.36128906 0.3515625 8.36328125 C-0.51138428 8.36739014 -1.37433105 8.37149902 -2.26342773 8.37573242 C-4.40234375 8.1328125 -4.40234375 8.1328125 -6.40234375 6.1328125 C-5.75732289 0.84364147 -5.21596293 0.00717534 0 0 Z " fill="#544C61" transform="translate(115.40234375,176.8671875)"/>
<path d="M0 0 C2.125 0.375 2.125 0.375 4 1 C4.625 3.375 4.625 3.375 5 6 C4.34 6.66 3.68 7.32 3 8 C0.875 7.625 0.875 7.625 -1 7 C-1.625 4.625 -1.625 4.625 -2 2 C-1.34 1.34 -0.68 0.68 0 0 Z " fill="#574E63" transform="translate(141,177)"/>
</svg>
