<?xml version="1.0" encoding="UTF-8"?>
<svg version="1.1" xmlns="http://www.w3.org/2000/svg" width="190" height="190">
<path d="M0 0 C1.06887451 -0.01071533 2.13774902 -0.02143066 3.23901367 -0.0324707 C12.82469778 0.13778615 20.48967115 2.64710686 27.3125 9.625 C33.06583415 18.18483861 33.51425268 25.51718622 33.5625 35.625 C33.583125 36.70523438 33.60375 37.78546875 33.625 38.8984375 C33.63273437 40.46464844 33.63273437 40.46464844 33.640625 42.0625 C33.6499707 43.00996094 33.65931641 43.95742187 33.66894531 44.93359375 C33.23263886 48.22800627 32.36582071 50.01554829 30.3125 52.625 C26.83634034 54.3330712 24.00997844 54.87941947 20.15844727 54.8996582 C19.15713272 54.90919022 18.15581818 54.91872223 17.12416077 54.92854309 C16.05322678 54.92763168 14.98229279 54.92672028 13.87890625 54.92578125 C12.76821274 54.93006638 11.65751923 54.9343515 10.51316833 54.93876648 C8.16723308 54.94450241 5.82128004 54.94501548 3.4753418 54.94067383 C-0.10854507 54.93751451 -3.6916058 54.96098102 -7.27539062 54.98632812 C-9.55729063 54.98860128 -11.83919284 54.98930454 -14.12109375 54.98828125 C-15.19000351 54.997491 -16.25891327 55.00670074 -17.36021423 55.01618958 C-22.85250229 54.98213139 -26.99543494 54.83840113 -31.6875 51.625 C-33.81966599 47.36066803 -32.95568561 41.78637668 -32.98266602 37.09619141 C-32.99413404 35.70936844 -33.01450338 34.32258779 -33.04418945 32.93603516 C-33.36188605 18.09481206 -33.36188605 18.09481206 -28.6875 11.625 C-27.71876953 10.24248047 -27.71876953 10.24248047 -26.73046875 8.83203125 C-19.21531793 0.71336928 -10.50158865 0.0589246 0 0 Z " fill="#F0E1D0" transform="translate(32.6875,118.375)"/>
<path d="M0 0 C1.64162109 -0.03673828 1.64162109 -0.03673828 3.31640625 -0.07421875 C11.71153034 -0.10438087 17.46782452 1.64997924 24.5 6.125 C32.28601387 13.91101387 32.9848806 21.65886871 33.04516602 32.19897461 C33.05670816 33.60630327 33.07719564 35.01358739 33.10668945 36.4206543 C33.14935657 38.45651924 33.16552956 40.49108733 33.17578125 42.52734375 C33.19036377 43.74413818 33.20494629 44.96093262 33.2199707 46.21459961 C32.65992582 49.9807196 31.74842291 51.10695781 28.75 53.375 C25.81572694 54.35309102 23.88188797 54.51243228 20.82299805 54.53613281 C19.82153244 54.54574036 18.82006683 54.5553479 17.78825378 54.56524658 C16.70699722 54.56949646 15.62574066 54.57374634 14.51171875 54.578125 C12.84143364 54.58667511 12.84143364 54.58667511 11.1374054 54.59539795 C8.77952017 54.60484909 6.42162173 54.61138238 4.0637207 54.61523438 C0.46216692 54.62493357 -3.1388147 54.655954 -6.74023438 54.6875 C-9.03124661 54.69403078 -11.32226293 54.69928096 -13.61328125 54.703125 C-15.22605705 54.7216452 -15.22605705 54.7216452 -16.87141418 54.74053955 C-22.34270747 54.72429706 -26.64421762 54.69720368 -31.25 51.375 C-34.52710455 46.89324244 -33.57846152 40.98991739 -33.5625 35.6875 C-33.57861328 34.63626953 -33.59472656 33.58503906 -33.61132812 32.50195312 C-33.61771241 22.24240822 -31.54941838 13.87859792 -24.25 6.375 C-16.54797131 0.64523473 -9.27087596 0.01076757 0 0 Z " fill="#F0E1D0" transform="translate(157.25,118.625)"/>
<path d="M0 0 C0.90136185 -0.00960754 1.80272369 -0.01921509 2.73139954 -0.02911377 C3.7032872 -0.03336365 4.67517487 -0.03761353 5.67651367 -0.04199219 C7.18032845 -0.0505423 7.18032845 -0.0505423 8.71452332 -0.05926514 C10.83701523 -0.06871379 12.9595218 -0.07524858 15.08203125 -0.07910156 C18.32146969 -0.0887983 21.56027126 -0.11981967 24.79956055 -0.15136719 C26.86270783 -0.15789832 28.92585964 -0.16314836 30.98901367 -0.16699219 C31.95482864 -0.17933899 32.92064362 -0.19168579 33.91572571 -0.20440674 C39.19539775 -0.1870105 42.99452899 0.13216949 47.53198242 3.16113281 C49.0715812 6.24033036 48.7366336 9.49076929 48.77026367 12.87207031 C48.77833542 13.6366153 48.78640717 14.40116028 48.79472351 15.18887329 C48.80856055 16.80785862 48.81928442 18.42687308 48.82714844 20.04589844 C48.84436851 22.51976847 48.88825593 24.99230427 48.93237305 27.46582031 C48.94249957 29.03872715 48.9510158 30.61164535 48.95776367 32.18457031 C48.97527176 32.92323334 48.99277985 33.66189636 49.01081848 34.42294312 C48.9963021 37.86634934 48.77894522 39.818998 46.73974609 42.64404297 C43.64006668 44.77402283 41.19924282 44.44322977 37.53198242 44.16113281 C37.61448242 45.25425781 37.69698242 46.34738281 37.78198242 47.47363281 C37.53198242 51.16113281 37.53198242 51.16113281 35.84448242 53.16113281 C32.86067753 54.45142682 31.61892002 54.11403962 28.53198242 53.16113281 C26.32641602 51.33984375 26.32641602 51.33984375 24.05541992 49.14550781 C17.99233924 44.10530503 12.79604066 44.16024642 5.15698242 44.41113281 C2.85776502 44.45451427 0.55815771 44.48128228 -1.74145508 44.48925781 C-2.74611816 44.51922852 -3.75078125 44.54919922 -4.78588867 44.58007812 C-7.46801758 44.16113281 -7.46801758 44.16113281 -9.79272461 42.63476562 C-12.08785318 39.24592233 -12.04300403 36.21096422 -11.99926758 32.25488281 C-12.00309448 31.49316772 -12.00692139 30.73145264 -12.01086426 29.94665527 C-12.01358071 28.33958613 -12.00623802 26.73247257 -11.98950195 25.12548828 C-11.96808544 22.66891694 -11.98930936 20.2152697 -12.01489258 17.75878906 C-12.01224925 16.19498054 -12.00712416 14.63117383 -11.99926758 13.06738281 C-12.0073645 12.3349939 -12.01546143 11.60260498 -12.02380371 10.84802246 C-11.96077482 7.41123626 -11.72629344 5.50140101 -9.62231445 2.72949219 C-6.42631027 0.40275478 -3.84126023 0.03309853 0 0 Z " fill="#ECDDCE" transform="translate(111.468017578125,16.8388671875)"/>
<path d="M0 0 C0.90458954 -0.00960754 1.80917908 -0.01921509 2.74118042 -0.02911377 C3.71620514 -0.03336365 4.69122986 -0.03761353 5.69580078 -0.04199219 C7.20317307 -0.0505423 7.20317307 -0.0505423 8.74099731 -0.05926514 C10.86768542 -0.06871296 12.99438815 -0.07524825 15.12109375 -0.07910156 C18.37151661 -0.08880866 21.62130755 -0.11983504 24.87158203 -0.15136719 C26.93798453 -0.15789724 29.00439154 -0.16314771 31.07080078 -0.16699219 C32.52726517 -0.18551239 32.52726517 -0.18551239 34.01315308 -0.20440674 C42.56778989 -0.176222 42.56778989 -0.176222 46.51611328 3.16113281 C48.90216677 6.74021304 48.83871743 9.35944837 48.85205078 13.49707031 C48.85870758 14.21343658 48.86536438 14.92980286 48.8722229 15.6678772 C48.88234023 17.18253007 48.8870402 18.69722743 48.88671875 20.21191406 C48.89108516 22.52126172 48.92739057 24.82868665 48.96533203 27.13769531 C48.97120195 28.61164713 48.97517017 30.085608 48.97705078 31.55957031 C48.99142181 32.24618744 49.00579285 32.93280457 49.02059937 33.64022827 C48.98832467 37.05284176 48.53727264 39.12379477 46.84521484 42.10961914 C43.93120226 44.67633274 42.62502851 44.72132495 38.78955078 44.58691406 C37.67451172 44.57982422 36.55947266 44.57273438 35.41064453 44.56542969 C33.08737381 44.50483384 30.76438274 44.43216198 28.44189453 44.34667969 C20.48513253 44.32384168 16.4801913 45.76918681 10.72167969 51.33764648 C8.23932053 53.38997553 6.7023712 53.91540344 3.51611328 54.16113281 C1.20361328 53.09863281 1.20361328 53.09863281 -0.48388672 51.16113281 C-0.73388672 47.97363281 -0.73388672 47.97363281 -0.48388672 45.16113281 C-1.55638672 45.07863281 -2.62888672 44.99613281 -3.73388672 44.91113281 C-7.94972718 44.06796472 -8.98171829 43.56527726 -11.48388672 40.16113281 C-11.88194959 37.38971399 -12.04574061 35.02308858 -12.01513672 32.25488281 C-12.01896362 31.49316772 -12.02279053 30.73145264 -12.0267334 29.94665527 C-12.02944985 28.33958613 -12.02210716 26.73247257 -12.00537109 25.12548828 C-11.98395458 22.66891694 -12.0051785 20.2152697 -12.03076172 17.75878906 C-12.02811839 16.19498054 -12.0229933 14.63117383 -12.01513672 13.06738281 C-12.02323364 12.3349939 -12.03133057 11.60260498 -12.03967285 10.84802246 C-11.97664396 7.41123626 -11.74216258 5.50140101 -9.63818359 2.72949219 C-6.43677974 0.39882374 -3.84760179 0.03302746 0 0 Z " fill="#EEDFCF" transform="translate(41.48388671875,16.8388671875)"/>
<path d="M0 0 C6.57099821 3.41691907 10.21568798 8.38204033 13.1484375 15.1171875 C14.95097344 22.68584671 14.67969882 30.11199052 11.1484375 37.1171875 C6.39869783 44.03481294 0.9903933 48.866673 -7.296875 50.640625 C-14.93544775 51.69180474 -21.5037569 50.54848755 -28.12109375 46.4296875 C-34.77197917 41.38522361 -38.68839581 35.41524263 -39.8515625 27.1171875 C-40.31642452 18.54558539 -38.48131903 11.69499035 -32.8515625 5.1171875 C-22.85350323 -3.35217027 -12.08604398 -5.52831665 0 0 Z " fill="#EDDECE" transform="translate(107.8515625,121.8828125)"/>
<path d="M0 0 C1.06887451 -0.01071533 2.13774902 -0.02143066 3.23901367 -0.0324707 C12.82469778 0.13778615 20.48967115 2.64710686 27.3125 9.625 C33.06583415 18.18483861 33.51425268 25.51718622 33.5625 35.625 C33.583125 36.70523438 33.60375 37.78546875 33.625 38.8984375 C33.63273437 40.46464844 33.63273437 40.46464844 33.640625 42.0625 C33.6499707 43.00996094 33.65931641 43.95742187 33.66894531 44.93359375 C33.23263886 48.22800627 32.36582071 50.01554829 30.3125 52.625 C26.83634034 54.3330712 24.00997844 54.87941947 20.15844727 54.8996582 C19.15713272 54.90919022 18.15581818 54.91872223 17.12416077 54.92854309 C16.05322678 54.92763168 14.98229279 54.92672028 13.87890625 54.92578125 C12.76821274 54.93006638 11.65751923 54.9343515 10.51316833 54.93876648 C8.16723308 54.94450241 5.82128004 54.94501548 3.4753418 54.94067383 C-0.10854507 54.93751451 -3.6916058 54.96098102 -7.27539062 54.98632812 C-9.55729063 54.98860128 -11.83919284 54.98930454 -14.12109375 54.98828125 C-15.19000351 54.997491 -16.25891327 55.00670074 -17.36021423 55.01618958 C-22.85250229 54.98213139 -26.99543494 54.83840113 -31.6875 51.625 C-33.81966599 47.36066803 -32.95568561 41.78637668 -32.98266602 37.09619141 C-32.99413404 35.70936844 -33.01450338 34.32258779 -33.04418945 32.93603516 C-33.36188605 18.09481206 -33.36188605 18.09481206 -28.6875 11.625 C-27.71876953 10.24248047 -27.71876953 10.24248047 -26.73046875 8.83203125 C-19.21531793 0.71336928 -10.50158865 0.0589246 0 0 Z M-23.08691406 15.46166992 C-25.76333633 19.96254774 -26.81412434 23.74871846 -26.8203125 28.9140625 C-26.82160156 29.93757813 -26.82289062 30.96109375 -26.82421875 32.015625 C-26.82035156 33.08296875 -26.81648438 34.1503125 -26.8125 35.25 C-26.81636719 36.32507813 -26.82023437 37.40015625 -26.82421875 38.5078125 C-26.82292969 39.52875 -26.82164063 40.5496875 -26.8203125 41.6015625 C-26.81918457 42.54080566 -26.81805664 43.48004883 -26.81689453 44.44775391 C-26.93056045 46.60324346 -26.93056045 46.60324346 -25.6875 47.625 C-24.0968669 47.72354422 -22.50188523 47.75298694 -20.90820312 47.75439453 C-19.890448 47.75754669 -18.87269287 47.76069885 -17.82409668 47.76394653 C-16.71683228 47.7619223 -15.60956787 47.75989807 -14.46875 47.7578125 C-12.7764325 47.75924759 -12.7764325 47.75924759 -11.04992676 47.76071167 C-8.65909774 47.76139368 -6.26826689 47.75953797 -3.87744141 47.75537109 C-0.20340849 47.75002316 3.47050217 47.75531543 7.14453125 47.76171875 C9.46093777 47.76105797 11.77734422 47.75977682 14.09375 47.7578125 C15.2010144 47.75983673 16.30827881 47.76186096 17.44909668 47.76394653 C18.97572937 47.75921829 18.97572937 47.75921829 20.53320312 47.75439453 C21.43397583 47.75359894 22.33474854 47.75280334 23.26281738 47.75198364 C25.30573069 47.85244606 25.30573069 47.85244606 26.3125 46.625 C26.62336715 42.77925173 26.59110941 38.91924862 26.625 35.0625 C26.65400391 33.98935547 26.68300781 32.91621094 26.71289062 31.81054688 C26.77108904 24.49993 26.02893777 18.61699114 20.89990234 13.10766602 C14.33672259 7.26427143 7.92879055 7.20622612 -0.4375 7.125 C-1.48421875 7.08375 -2.5309375 7.0425 -3.609375 7 C-11.66841234 6.91940963 -18.0302212 8.82498108 -23.08691406 15.46166992 Z " fill="#4E465D" transform="translate(32.6875,118.375)"/>
<path d="M0 0 C1.64162109 -0.03673828 1.64162109 -0.03673828 3.31640625 -0.07421875 C11.71153034 -0.10438087 17.46782452 1.64997924 24.5 6.125 C32.28601387 13.91101387 32.9848806 21.65886871 33.04516602 32.19897461 C33.05670816 33.60630327 33.07719564 35.01358739 33.10668945 36.4206543 C33.14935657 38.45651924 33.16552956 40.49108733 33.17578125 42.52734375 C33.19036377 43.74413818 33.20494629 44.96093262 33.2199707 46.21459961 C32.65992582 49.9807196 31.74842291 51.10695781 28.75 53.375 C25.81572694 54.35309102 23.88188797 54.51243228 20.82299805 54.53613281 C19.82153244 54.54574036 18.82006683 54.5553479 17.78825378 54.56524658 C16.70699722 54.56949646 15.62574066 54.57374634 14.51171875 54.578125 C12.84143364 54.58667511 12.84143364 54.58667511 11.1374054 54.59539795 C8.77952017 54.60484909 6.42162173 54.61138238 4.0637207 54.61523438 C0.46216692 54.62493357 -3.1388147 54.655954 -6.74023438 54.6875 C-9.03124661 54.69403078 -11.32226293 54.69928096 -13.61328125 54.703125 C-15.22605705 54.7216452 -15.22605705 54.7216452 -16.87141418 54.74053955 C-22.34270747 54.72429706 -26.64421762 54.69720368 -31.25 51.375 C-34.52710455 46.89324244 -33.57846152 40.98991739 -33.5625 35.6875 C-33.57861328 34.63626953 -33.59472656 33.58503906 -33.61132812 32.50195312 C-33.61771241 22.24240822 -31.54941838 13.87859792 -24.25 6.375 C-16.54797131 0.64523473 -9.27087596 0.01076757 0 0 Z M-23.1875 15.875 C-26.12478794 20.09672911 -26.37643021 24.60956079 -26.3828125 29.640625 C-26.38410156 30.61257812 -26.38539063 31.58453125 -26.38671875 32.5859375 C-26.38285156 33.58882812 -26.37898437 34.59171875 -26.375 35.625 C-26.37886719 36.64335937 -26.38273438 37.66171875 -26.38671875 38.7109375 C-26.38542969 39.67773438 -26.38414062 40.64453125 -26.3828125 41.640625 C-26.38168457 42.52524414 -26.38055664 43.40986328 -26.37939453 44.32128906 C-26.47769098 46.36772375 -26.47769098 46.36772375 -25.25 47.375 C-23.6593669 47.47354422 -22.06438523 47.50298694 -20.47070312 47.50439453 C-19.452948 47.50754669 -18.43519287 47.51069885 -17.38659668 47.51394653 C-16.27933228 47.5119223 -15.17206787 47.50989807 -14.03125 47.5078125 C-12.3389325 47.50924759 -12.3389325 47.50924759 -10.61242676 47.51071167 C-8.22159774 47.51139368 -5.83076689 47.50953797 -3.43994141 47.50537109 C0.23409151 47.50002316 3.90800217 47.50531543 7.58203125 47.51171875 C9.89843777 47.51105797 12.21484422 47.50977682 14.53125 47.5078125 C15.6385144 47.50983673 16.74577881 47.51186096 17.88659668 47.51394653 C19.41322937 47.50921829 19.41322937 47.50921829 20.97070312 47.50439453 C21.87147583 47.50359894 22.77224854 47.50280334 23.70031738 47.50198364 C25.74323069 47.60244606 25.74323069 47.60244606 26.75 46.375 C27.06086715 42.52925173 27.02860941 38.66924862 27.0625 34.8125 C27.09150391 33.73935547 27.12050781 32.66621094 27.15039062 31.56054688 C27.20300619 24.95122255 26.71597211 19.81747384 22.75 14.375 C20.79128408 12.29676885 20.79128408 12.29676885 18.625 10.9375 C17.60019531 10.22787109 17.60019531 10.22787109 16.5546875 9.50390625 C11.5859484 6.3957556 6.3586188 7.07134594 0.625 7 C-0.49132812 6.96261719 -1.60765625 6.92523438 -2.7578125 6.88671875 C-11.82936913 6.79044044 -17.50543723 8.67382533 -23.1875 15.875 Z " fill="#4E455D" transform="translate(157.25,118.625)"/>
<path d="M0 0 C5.09750176 2.71791576 8.82716245 6.3982346 10.5859375 11.8671875 C11.84647109 17.63532538 12.47177337 22.9151101 9.765625 28.31640625 C6.46597143 33.07975231 3.44105869 36.63203046 -2.234375 38.31640625 C-8.84809109 38.95377313 -15.72969403 39.47848211 -21.234375 35.31640625 C-26.37126999 30.16733853 -28.38357527 26.53687429 -28.609375 19.12890625 C-28.56049532 12.85834138 -27.44122104 8.97030132 -23.234375 4.31640625 C-16.9233779 -1.54380534 -8.2393426 -2.52077789 0 0 Z " fill="#4E465E" transform="translate(41.234375,76.68359375)"/>
<path d="M0 0 C4.98153202 2.80329558 8.67008384 6.72824405 10.5546875 12.15625 C11.35881237 17.91321477 11.67124334 23.86979 8.9296875 29.15625 C5.68074181 33.2601814 2.63637077 36.46235558 -2.4453125 38.15625 C-16.21336899 39.11210973 -16.21336899 39.11210973 -21.4453125 35.15625 C-26.19425752 31.01673376 -28.41072904 26.95094272 -29.3203125 20.70703125 C-29.61514468 14.69061204 -28.47588385 10.02686193 -24.6953125 5.28125 C-18.08072025 -1.52278164 -9.05273552 -3.12362759 0 0 Z " fill="#4E465E" transform="translate(166.4453125,76.84375)"/>
<path d="M0 0 C0.90458954 -0.00960754 1.80917908 -0.01921509 2.74118042 -0.02911377 C3.71620514 -0.03336365 4.69122986 -0.03761353 5.69580078 -0.04199219 C7.20317307 -0.0505423 7.20317307 -0.0505423 8.74099731 -0.05926514 C10.86768542 -0.06871296 12.99438815 -0.07524825 15.12109375 -0.07910156 C18.37151661 -0.08880866 21.62130755 -0.11983504 24.87158203 -0.15136719 C26.93798453 -0.15789724 29.00439154 -0.16314771 31.07080078 -0.16699219 C32.52726517 -0.18551239 32.52726517 -0.18551239 34.01315308 -0.20440674 C42.56778989 -0.176222 42.56778989 -0.176222 46.51611328 3.16113281 C48.90216677 6.74021304 48.83871743 9.35944837 48.85205078 13.49707031 C48.85870758 14.21343658 48.86536438 14.92980286 48.8722229 15.6678772 C48.88234023 17.18253007 48.8870402 18.69722743 48.88671875 20.21191406 C48.89108516 22.52126172 48.92739057 24.82868665 48.96533203 27.13769531 C48.97120195 28.61164713 48.97517017 30.085608 48.97705078 31.55957031 C48.99142181 32.24618744 49.00579285 32.93280457 49.02059937 33.64022827 C48.98832467 37.05284176 48.53727264 39.12379477 46.84521484 42.10961914 C43.93120226 44.67633274 42.62502851 44.72132495 38.78955078 44.58691406 C37.67451172 44.57982422 36.55947266 44.57273438 35.41064453 44.56542969 C33.08737381 44.50483384 30.76438274 44.43216198 28.44189453 44.34667969 C20.48513253 44.32384168 16.4801913 45.76918681 10.72167969 51.33764648 C8.23932053 53.38997553 6.7023712 53.91540344 3.51611328 54.16113281 C1.20361328 53.09863281 1.20361328 53.09863281 -0.48388672 51.16113281 C-0.73388672 47.97363281 -0.73388672 47.97363281 -0.48388672 45.16113281 C-1.55638672 45.07863281 -2.62888672 44.99613281 -3.73388672 44.91113281 C-7.94972718 44.06796472 -8.98171829 43.56527726 -11.48388672 40.16113281 C-11.88194959 37.38971399 -12.04574061 35.02308858 -12.01513672 32.25488281 C-12.01896362 31.49316772 -12.02279053 30.73145264 -12.0267334 29.94665527 C-12.02944985 28.33958613 -12.02210716 26.73247257 -12.00537109 25.12548828 C-11.98395458 22.66891694 -12.0051785 20.2152697 -12.03076172 17.75878906 C-12.02811839 16.19498054 -12.0229933 14.63117383 -12.01513672 13.06738281 C-12.02323364 12.3349939 -12.03133057 11.60260498 -12.03967285 10.84802246 C-11.97664396 7.41123626 -11.74216258 5.50140101 -9.63818359 2.72949219 C-6.43677974 0.39882374 -3.84760179 0.03302746 0 0 Z M-5.48388672 9.16113281 C-5.77909546 11.94476967 -5.77909546 11.94476967 -5.71435547 15.19238281 C-5.71242188 16.39507812 -5.71048828 17.59777344 -5.70849609 18.83691406 C-5.69625 20.09890625 -5.68400391 21.36089844 -5.67138672 22.66113281 C-5.67074219 23.923125 -5.67009766 25.18511719 -5.66943359 26.48535156 C-5.96267415 32.5038674 -5.96267415 32.5038674 -4.48388672 38.16113281 C-2.12789437 38.62865069 -2.12789437 38.62865069 0.57861328 38.78613281 C1.49771484 38.86089844 2.41681641 38.93566406 3.36376953 39.01269531 C4.07404297 39.06167969 4.78431641 39.11066406 5.51611328 39.16113281 C6.17611328 40.81113281 6.83611328 42.46113281 7.51611328 44.16113281 C8.42361328 43.54238281 9.33111328 42.92363281 10.26611328 42.28613281 C14.8492591 39.28946054 17.63515186 37.92329116 23.15673828 37.74707031 C24.22666016 37.70839844 25.29658203 37.66972656 26.39892578 37.62988281 C27.51009766 37.59894531 28.62126953 37.56800781 29.76611328 37.53613281 C30.89275391 37.49746094 32.01939453 37.45878906 33.18017578 37.41894531 C35.95865876 37.32475945 38.73713662 37.23913695 41.51611328 37.16113281 C41.54077074 33.04940722 41.55895287 28.93771004 41.57104492 24.82592773 C41.57608408 23.42618053 41.58291545 22.02643861 41.59155273 20.62670898 C41.60363648 18.61867505 41.60881135 16.61060324 41.61376953 14.60253906 C41.61900635 13.39283447 41.62424316 12.18312988 41.62963867 10.93676758 C41.83386614 8.25301264 41.83386614 8.25301264 40.51611328 7.16113281 C39.14551735 7.05801245 37.7697167 7.02264328 36.39526367 7.01586914 C35.5208815 7.00948929 34.64649933 7.00310944 33.74562073 6.99653625 C32.79460983 6.99542343 31.84359894 6.99431061 30.86376953 6.99316406 C29.89330185 6.98983566 28.92283417 6.98650726 27.92295837 6.983078 C25.86588008 6.97800451 23.80879353 6.97566981 21.75170898 6.97583008 C18.59556584 6.97364455 15.43977258 6.9554959 12.28369141 6.93652344 C10.28955198 6.93358948 8.29541089 6.9316047 6.30126953 6.93066406 C5.35228287 6.92347855 4.4032962 6.91629303 3.42555237 6.90888977 C2.10925087 6.91350471 2.10925087 6.91350471 0.76635742 6.91821289 C-0.00784042 6.91678787 -0.78203827 6.91536285 -1.57969666 6.91389465 C-3.72507265 6.9955354 -3.72507265 6.9955354 -5.48388672 9.16113281 Z " fill="#50485F" transform="translate(41.48388671875,16.8388671875)"/>
<path d="M0 0 C0.90136185 -0.00960754 1.80272369 -0.01921509 2.73139954 -0.02911377 C3.7032872 -0.03336365 4.67517487 -0.03761353 5.67651367 -0.04199219 C7.18032845 -0.0505423 7.18032845 -0.0505423 8.71452332 -0.05926514 C10.83701523 -0.06871379 12.9595218 -0.07524858 15.08203125 -0.07910156 C18.32146969 -0.0887983 21.56027126 -0.11981967 24.79956055 -0.15136719 C26.86270783 -0.15789832 28.92585964 -0.16314836 30.98901367 -0.16699219 C31.95482864 -0.17933899 32.92064362 -0.19168579 33.91572571 -0.20440674 C39.19539775 -0.1870105 42.99452899 0.13216949 47.53198242 3.16113281 C49.0715812 6.24033036 48.7366336 9.49076929 48.77026367 12.87207031 C48.77833542 13.6366153 48.78640717 14.40116028 48.79472351 15.18887329 C48.80856055 16.80785862 48.81928442 18.42687308 48.82714844 20.04589844 C48.84436851 22.51976847 48.88825593 24.99230427 48.93237305 27.46582031 C48.94249957 29.03872715 48.9510158 30.61164535 48.95776367 32.18457031 C48.97527176 32.92323334 48.99277985 33.66189636 49.01081848 34.42294312 C48.9963021 37.86634934 48.77894522 39.818998 46.73974609 42.64404297 C43.64006668 44.77402283 41.19924282 44.44322977 37.53198242 44.16113281 C37.61448242 45.25425781 37.69698242 46.34738281 37.78198242 47.47363281 C37.53198242 51.16113281 37.53198242 51.16113281 35.84448242 53.16113281 C32.86067753 54.45142682 31.61892002 54.11403962 28.53198242 53.16113281 C26.32641602 51.33984375 26.32641602 51.33984375 24.05541992 49.14550781 C17.99233924 44.10530503 12.79604066 44.16024642 5.15698242 44.41113281 C2.85776502 44.45451427 0.55815771 44.48128228 -1.74145508 44.48925781 C-2.74611816 44.51922852 -3.75078125 44.54919922 -4.78588867 44.58007812 C-7.46801758 44.16113281 -7.46801758 44.16113281 -9.79272461 42.63476562 C-12.08785318 39.24592233 -12.04300403 36.21096422 -11.99926758 32.25488281 C-12.00309448 31.49316772 -12.00692139 30.73145264 -12.01086426 29.94665527 C-12.01358071 28.33958613 -12.00623802 26.73247257 -11.98950195 25.12548828 C-11.96808544 22.66891694 -11.98930936 20.2152697 -12.01489258 17.75878906 C-12.01224925 16.19498054 -12.00712416 14.63117383 -11.99926758 13.06738281 C-12.0073645 12.3349939 -12.01546143 11.60260498 -12.02380371 10.84802246 C-11.96077482 7.41123626 -11.72629344 5.50140101 -9.62231445 2.72949219 C-6.42631027 0.40275478 -3.84126023 0.03309853 0 0 Z M-5.46801758 8.16113281 C-5.56805047 10.29466455 -5.59882805 12.43150823 -5.60083008 14.56738281 C-5.60211914 15.86804688 -5.6034082 17.16871094 -5.60473633 18.50878906 C-5.6026416 19.1895752 -5.60054688 19.87036133 -5.59838867 20.57177734 C-5.59303998 22.65241796 -5.59833438 24.7328427 -5.60473633 26.81347656 C-5.60344727 28.11414063 -5.6021582 29.41480469 -5.60083008 30.75488281 C-5.59970215 31.95822266 -5.59857422 33.1615625 -5.59741211 34.40136719 C-5.78257735 37.07097764 -5.78257735 37.07097764 -4.46801758 38.16113281 C-2.62363066 38.25838436 -0.77588421 38.29316878 1.07104492 38.30175781 C2.20928711 38.32109375 3.3475293 38.34042969 4.52026367 38.36035156 C6.92114049 38.39387616 9.32227925 38.41240915 11.72338867 38.41503906 C18.99834795 38.57052188 23.11444901 39.17255366 28.53198242 44.16113281 C28.84135742 43.52175781 29.15073242 42.88238281 29.46948242 42.22363281 C30.53198242 40.16113281 30.53198242 40.16113281 31.53198242 39.16113281 C33.00594981 38.95345052 34.48689503 38.79397264 35.96948242 38.66113281 C39.37695747 38.36966337 39.37695747 38.36966337 42.53198242 37.16113281 C42.55663988 33.04940722 42.57482201 28.93771004 42.58691406 24.82592773 C42.59195322 23.42618053 42.59878459 22.02643861 42.60742188 20.62670898 C42.61950562 18.61867505 42.62468049 16.61060324 42.62963867 14.60253906 C42.63487549 13.39283447 42.6401123 12.18312988 42.64550781 10.93676758 C42.84973528 8.25301264 42.84973528 8.25301264 41.53198242 7.16113281 C40.09457889 7.06299295 38.65241915 7.03315001 37.21166992 7.03173828 C36.29401855 7.02858612 35.37636719 7.02543396 34.4309082 7.02218628 C32.93406494 7.02522263 32.93406494 7.02522263 31.40698242 7.02832031 C29.88113525 7.02688522 29.88113525 7.02688522 28.32446289 7.02542114 C26.16902607 7.0247392 24.0135872 7.02659446 21.8581543 7.03076172 C18.54625871 7.03610976 15.23449876 7.03081718 11.92260742 7.02441406 C9.83406545 7.02507484 7.74552357 7.026356 5.65698242 7.02832031 C4.65908691 7.02629608 3.66119141 7.02427185 2.63305664 7.02218628 C1.71540527 7.02533844 0.79775391 7.0284906 -0.14770508 7.03173828 C-0.95965332 7.03253387 -1.77160156 7.03332947 -2.6081543 7.03414917 C-4.4834751 6.95749092 -4.4834751 6.95749092 -5.46801758 8.16113281 Z " fill="#4D455D" transform="translate(111.468017578125,16.8388671875)"/>
<path d="M0 0 C6.57099821 3.41691907 10.21568798 8.38204033 13.1484375 15.1171875 C14.95097344 22.68584671 14.67969882 30.11199052 11.1484375 37.1171875 C6.39869783 44.03481294 0.9903933 48.866673 -7.296875 50.640625 C-14.93544775 51.69180474 -21.5037569 50.54848755 -28.12109375 46.4296875 C-34.77197917 41.38522361 -38.68839581 35.41524263 -39.8515625 27.1171875 C-40.31642452 18.54558539 -38.48131903 11.69499035 -32.8515625 5.1171875 C-22.85350323 -3.35217027 -12.08604398 -5.52831665 0 0 Z M-29.265625 11.7109375 C-32.82948061 16.7362303 -33.74363773 22.04900134 -32.8515625 28.1171875 C-30.69867477 34.72675403 -27.84238181 38.92959951 -21.71875 42.27734375 C-16.7883118 44.49500947 -11.87970377 45.14141175 -6.7265625 43.3984375 C-0.99658372 40.70708383 2.8824967 37.43080345 5.9609375 31.8046875 C7.79688731 26.10358018 7.82339528 22.10831294 5.8984375 16.4296875 C3.13835095 11.20523796 0.4853966 7.78566705 -4.8515625 5.1171875 C-14.55059489 2.25017793 -22.44944611 4.02861433 -29.265625 11.7109375 Z " fill="#4F465E" transform="translate(107.8515625,121.8828125)"/>
<path d="M0 0 C3.1769364 1.5884682 5.70345526 3.29109225 8 6 C9.28713366 10.27686819 9.32093063 14.01832983 7.9375 18.25 C5.2956697 21.99969462 2.71930114 25.37580912 -1.95703125 26.44921875 C-7.02659471 26.73032265 -10.10980568 25.35971328 -14 22 C-17.33142491 18.41231164 -18.33170389 15.80198962 -18.1875 11 C-17.48973722 6.13035029 -15.65213514 3.96000788 -11.7890625 1.05859375 C-7.60587535 -1.41661088 -4.63789169 -0.9595638 0 0 Z " fill="#EDDECE" transform="translate(162,83)"/>
<path d="M0 0 C3.81553031 2.42939119 6.5542283 4.66268491 8 9 C8.38981277 13.1320154 8.27518905 15.46020609 6.375 19.1875 C2.83812594 23.37590349 0.00696671 25.71329047 -5.5 26.5 C-10.44097503 25.79414642 -13.22276065 23.65467111 -16.8125 20.3125 C-18.68756341 16.66106073 -19.2415465 13.09208183 -19 9 C-14.99647029 0.99294058 -8.85528004 -2.67115394 0 0 Z " fill="#EDDECE" transform="translate(38,83)"/>
<path d="M0 0 C4.37823917 -0.04938149 8.75633146 -0.0857104 13.13476562 -0.10986328 C14.6247032 -0.11993043 16.11462097 -0.13358518 17.60449219 -0.15087891 C19.74419028 -0.17509653 21.88362753 -0.18647564 24.0234375 -0.1953125 C25.31169434 -0.20578613 26.59995117 -0.21625977 27.92724609 -0.22705078 C31 0 31 0 33 2 C32.75 4.0625 32.75 4.0625 32 6 C27.77085156 8.11457422 22.22100194 7.18585828 17.56884766 7.18530273 C15.50792873 7.18749158 13.4475431 7.20565983 11.38671875 7.22460938 C10.09378906 7.22654297 8.80085938 7.22847656 7.46875 7.23046875 C6.27701172 7.23457764 5.08527344 7.23868652 3.85742188 7.24291992 C1 7 1 7 -1 5 C-0.625 2.375 -0.625 2.375 0 0 Z " fill="#5C5367" transform="translate(114,30)"/>
<path d="M0 0 C0.9140625 2.04296875 0.9140625 2.04296875 1 5 C-0.85699805 7.78707482 -3.21383973 10.00358814 -5.625 12.3125 C-6.25535156 12.95767578 -6.88570312 13.60285156 -7.53515625 14.26757812 C-12.12471171 18.77602917 -12.12471171 18.77602917 -15.65625 19.6796875 C-18.88185143 18.74426309 -20.5141795 17.18493109 -22.875 14.8125 C-23.67679687 14.03519531 -24.47859375 13.25789062 -25.3046875 12.45703125 C-27 10 -27 10 -26.7578125 7.19921875 C-26.50773437 6.47347656 -26.25765625 5.74773437 -26 5 C-22.68289418 5.36856731 -21.30834668 5.68230948 -18.9375 8.125 C-18.298125 8.74375 -17.65875 9.3625 -17 10 C-11.99729884 9.73446384 -9.35682573 5.37795427 -6.21875 1.93359375 C-4 0 -4 0 0 0 Z " fill="#524A61" transform="translate(108,136)"/>
<path d="M0 0 C1.05368774 0.00012085 1.05368774 0.00012085 2.12866211 0.00024414 C4.27087312 -0.00194055 6.41256783 -0.02008824 8.5546875 -0.0390625 C9.91080552 -0.04199671 11.266926 -0.04398132 12.62304688 -0.04492188 C13.86304443 -0.04903076 15.10304199 -0.05313965 16.38061523 -0.05737305 C19.34570312 0.18554688 19.34570312 0.18554688 21.34570312 2.18554688 C21.09570312 4.24804688 21.09570312 4.24804688 20.34570312 6.18554688 C15.78314254 8.46682717 9.41763133 7.37057308 4.40820312 7.37304688 C3.10689453 7.38529297 1.80558594 7.39753906 0.46484375 7.41015625 C-1.40204102 7.41305664 -1.40204102 7.41305664 -3.30664062 7.41601562 C-4.45124756 7.42012451 -5.59585449 7.4242334 -6.77514648 7.4284668 C-9.65429688 7.18554688 -9.65429688 7.18554688 -12.65429688 5.18554688 C-11.06540005 -1.85099619 -6.37252574 0.02311701 0 0 Z " fill="#5B5267" transform="translate(55.654296875,29.814453125)"/>
<path d="M0 0 C0.78955078 -0.01224609 1.57910156 -0.02449219 2.39257812 -0.03710938 C4.45057435 -0.04237279 6.50812009 0.06543715 8.5625 0.1875 C9.2225 0.8475 9.8825 1.5075 10.5625 2.1875 C10.02678571 5.72321429 10.02678571 5.72321429 8.5625 7.1875 C5.73833618 7.31413091 2.94955207 7.37270548 0.125 7.375 C-0.66455078 7.38724609 -1.45410156 7.39949219 -2.26757812 7.41210938 C-4.32557435 7.41737279 -6.38312009 7.30956285 -8.4375 7.1875 C-9.0975 6.5275 -9.7575 5.8675 -10.4375 5.1875 C-9.46080706 -1.25867338 -5.61315386 0.00455983 0 0 Z " fill="#5C5367" transform="translate(136.4375,41.8125)"/>
<path d="M0 0 C0.78955078 -0.01224609 1.57910156 -0.02449219 2.39257812 -0.03710938 C4.45057435 -0.04237279 6.50812009 0.06543715 8.5625 0.1875 C9.2225 0.8475 9.8825 1.5075 10.5625 2.1875 C10.02678571 5.72321429 10.02678571 5.72321429 8.5625 7.1875 C5.73833618 7.31413091 2.94955207 7.37270548 0.125 7.375 C-0.66455078 7.38724609 -1.45410156 7.39949219 -2.26757812 7.41210938 C-4.32557435 7.41737279 -6.38312009 7.30956285 -8.4375 7.1875 C-9.0975 6.5275 -9.7575 5.8675 -10.4375 5.1875 C-9.46080706 -1.25867338 -5.61315386 0.00455983 0 0 Z " fill="#5C5367" transform="translate(53.4375,41.8125)"/>
</svg>
