<svg version="1.1" id="Layer_1" xmlns="http://www.w3.org/2000/svg" xmlns:xlink="http://www.w3.org/1999/xlink" x="0px" y="0px"
	 width="100%" viewBox="0 0 646 250" enable-background="new 0 0 646 250" xml:space="preserve">
<path fill="#48704D" opacity="1.000000" stroke="none" 
	d="
M487.000000,251.000000 
	C324.711792,251.000000 162.923584,251.000000 1.067686,251.000000 
	C1.067686,167.735077 1.067686,84.470078 1.067686,1.102540 
	C216.333313,1.102540 431.666656,1.102540 646.977539,1.102540 
	C646.977539,84.409775 646.977539,167.704895 646.977539,251.000000 
	C593.803406,251.000000 540.651672,251.000000 487.000000,251.000000 
M432.500000,42.873169 
	C310.187225,42.873211 187.874176,42.991653 65.562073,42.702427 
	C52.355160,42.671200 42.521736,51.979610 42.692207,65.680443 
	C43.198029,106.334045 42.854568,146.997986 42.884655,187.657852 
	C42.894493,200.959045 51.065792,209.115356 64.398148,209.116501 
	C237.369339,209.131287 410.340515,209.131302 583.311707,209.116867 
	C596.744568,209.115738 605.044861,200.740433 605.047241,187.321457 
	C605.054443,146.828201 604.693359,106.329941 605.262146,65.844673 
	C605.438049,53.319893 596.379578,42.518223 581.973145,42.671276 
	C532.486938,43.197029 482.991760,42.873035 432.500000,42.873169 
z"/>
<path fill="#A5A5A5" opacity="1.000000" stroke="none" 
	d="
M433.000000,42.873043 
	C482.991760,42.873035 532.486938,43.197029 581.973145,42.671276 
	C596.379578,42.518223 605.438049,53.319893 605.262146,65.844673 
	C604.693359,106.329941 605.054443,146.828201 605.047241,187.321457 
	C605.044861,200.740433 596.744568,209.115738 583.311707,209.116867 
	C410.340515,209.131302 237.369339,209.131287 64.398148,209.116501 
	C51.065792,209.115356 42.894493,200.959045 42.884655,187.657852 
	C42.854568,146.997986 43.198029,106.334045 42.692207,65.680443 
	C42.521736,51.979610 52.355160,42.671200 65.562073,42.702427 
	C187.874176,42.991653 310.187225,42.873211 433.000000,42.873043 
M46.162598,89.499977 
	C46.162609,122.160408 46.142670,154.820847 46.174023,187.481247 
	C46.184273,198.160217 53.065155,205.337616 63.729939,205.932144 
	C65.391754,206.024780 67.061150,205.998306 68.727043,205.998322 
	C238.860901,206.000916 408.994751,206.000977 579.128601,205.997955 
	C580.794250,205.997925 582.463196,206.014008 584.125061,205.923019 
	C594.518921,205.353912 601.729614,198.418594 601.769836,187.994843 
	C601.929138,146.670105 601.927917,105.344032 601.770630,64.019264 
	C601.730957,53.592884 594.528442,46.652359 584.139221,46.076641 
	C582.643555,45.993755 581.141663,46.002087 579.642639,46.002060 
	C409.175507,45.999023 238.708389,45.998802 68.241272,46.004505 
	C66.409576,46.004566 64.569435,45.986542 62.747585,46.143486 
	C52.918720,46.990208 46.265949,54.129791 46.177647,64.004822 
	C46.104637,72.169266 46.162682,80.334877 46.162598,89.499977 
z"/>
<path fill="#010101" opacity="1.000000" stroke="none" 
	d="
M46.162628,88.999969 
	C46.162682,80.334877 46.104637,72.169266 46.177647,64.004822 
	C46.265949,54.129791 52.918720,46.990208 62.747585,46.143486 
	C64.569435,45.986542 66.409576,46.004566 68.241272,46.004505 
	C238.708389,45.998802 409.175507,45.999023 579.642639,46.002060 
	C581.141663,46.002087 582.643555,45.993755 584.139221,46.076641 
	C594.528442,46.652359 601.730957,53.592884 601.770630,64.019264 
	C601.927917,105.344032 601.929138,146.670105 601.769836,187.994843 
	C601.729614,198.418594 594.518921,205.353912 584.125061,205.923019 
	C582.463196,206.014008 580.794250,205.997925 579.128601,205.997955 
	C408.994751,206.000977 238.860901,206.000916 68.727043,205.998322 
	C67.061150,205.998306 65.391754,206.024780 63.729939,205.932144 
	C53.065155,205.337616 46.184273,198.160217 46.174023,187.481247 
	C46.142670,154.820847 46.162609,122.160408 46.162628,88.999969 
M151.717621,102.573921 
	C135.627197,93.244003 119.589531,83.821396 103.425026,74.621635 
	C94.806808,69.716728 87.444679,72.619606 84.250160,82.422035 
	C84.169525,83.248474 84.018860,84.074875 84.018410,84.901360 
	C84.003769,112.016052 83.992493,139.130768 84.031647,166.245407 
	C84.033745,167.702332 84.477478,169.158646 84.795441,171.274490 
	C88.166046,179.233521 94.855629,182.182236 102.051254,178.120819 
	C118.837967,168.645905 135.413834,158.797455 152.767044,148.977585 
	C159.798462,144.935760 166.896042,141.003906 173.844238,136.823776 
	C182.178238,131.809906 182.641785,121.055840 174.544357,115.922119 
	C167.295471,111.326385 159.649506,107.357002 151.717621,102.573921 
M244.909561,160.885803 
	C244.077682,160.916489 243.245819,160.972824 242.413910,160.973999 
	C231.221603,160.989777 222.739395,153.325226 222.039825,142.572372 
	C221.341766,131.843094 228.744293,122.379059 239.723358,121.749542 
	C244.972168,121.448593 250.377686,123.880692 255.570709,125.043236 
	C256.668243,124.120346 258.408691,122.656837 260.972778,120.500778 
	C260.170624,120.167000 259.430664,120.031738 258.913208,119.618111 
	C250.065247,112.545494 238.054565,111.506104 228.023193,116.986320 
	C218.319366,122.287598 212.525726,132.964539 213.650345,143.473663 
	C214.896942,155.122559 222.581100,164.750320 233.607071,167.746658 
	C243.333435,170.389816 252.547653,169.133743 260.130707,161.956085 
	C266.850769,155.595306 268.318634,147.523544 266.999298,138.762604 
	C258.342285,138.762604 250.087433,138.762604 241.820053,138.762604 
	C241.820053,141.474091 241.820053,143.864288 241.820053,146.721466 
	C247.755371,146.721466 253.330444,146.721466 259.218262,146.721466 
	C257.957214,155.073730 252.866577,158.903564 244.909561,160.885803 
M381.865479,143.559326 
	C381.865479,140.479782 381.865479,137.400238 381.865479,133.956696 
	C378.795441,134.197540 376.520844,134.327866 374.259796,134.579758 
	C373.482697,134.666351 372.563904,135.477737 372.006714,135.245575 
	C362.108185,131.121201 353.009644,134.485046 348.936676,143.878494 
	C345.035950,152.874847 349.063965,163.445404 357.886902,167.447220 
	C363.432373,169.962479 368.694611,169.136627 373.794800,165.736206 
	C373.971008,171.888474 372.432892,175.169205 368.894440,176.703033 
	C364.273804,178.705948 360.660400,177.288010 355.302368,171.345200 
	C353.218933,172.257553 351.121552,173.176041 349.018524,174.096970 
	C352.890076,182.294144 360.017914,186.131561 368.102722,184.607910 
	C376.773193,182.973892 381.447174,177.204483 381.808289,167.022308 
	C382.073730,159.537354 381.863647,152.035538 381.865479,143.559326 
M447.987610,153.494141 
	C447.987610,158.253067 447.987610,163.011993 447.987610,167.500732 
	C451.162354,167.500732 453.577637,167.500732 456.184082,167.500732 
	C456.184082,163.990433 456.184082,160.829407 456.184082,157.668365 
	C456.184082,154.552628 456.184082,151.436905 456.184082,147.990768 
	C460.687653,147.990768 464.669128,148.172409 468.628387,147.952957 
	C476.873322,147.495956 483.609650,140.838211 484.010315,133.000259 
	C484.451599,124.367203 479.069183,116.924622 470.532227,116.033745 
	C463.168762,115.265327 455.661621,115.874252 447.987610,115.874252 
	C447.987610,128.179642 447.987610,140.337677 447.987610,153.494141 
M512.151672,145.592361 
	C510.870148,145.923904 509.543701,146.137863 508.314758,146.607071 
	C502.696228,148.752304 499.868103,152.689667 500.146729,157.834671 
	C500.430634,163.078033 503.947784,167.570282 509.872650,168.191040 
	C514.141479,168.638275 518.605347,167.224442 523.208984,166.610489 
	C524.432556,170.137283 527.977478,167.160202 531.015564,167.658630 
	C531.015564,160.538559 531.084656,153.885452 530.996948,147.234421 
	C530.901550,140.005341 526.878967,135.257065 519.582031,133.519073 
	C511.673401,131.635345 504.803284,134.462219 501.287994,141.345535 
	C503.529999,142.287521 505.746490,143.218796 507.972717,144.154160 
	C510.865204,140.557724 514.481689,139.463882 518.337952,141.101944 
	C520.365112,141.963028 521.837952,144.129135 524.253845,146.339874 
	C519.428345,145.964508 516.197021,145.713165 512.151672,145.592361 
M309.243683,145.892609 
	C308.249023,151.828491 308.463165,157.526855 312.578339,162.425323 
	C317.918579,168.782028 326.739868,170.701187 334.326569,167.178543 
	C341.811035,163.703369 345.531189,156.385162 344.156219,147.841934 
	C342.878815,139.904922 336.794647,134.136414 328.696442,133.184250 
	C320.219482,132.187561 312.964172,136.737015 309.243683,145.892609 
M296.173859,135.059906 
	C294.607483,134.535065 293.072601,133.871170 291.469574,133.508301 
	C282.174438,131.404175 272.654327,137.227753 270.339142,146.368423 
	C267.881287,156.072540 273.260956,165.529114 282.737854,168.163101 
	C291.520935,170.604248 300.228088,166.760117 304.000183,158.775986 
	C308.042908,150.219086 305.340973,141.401657 296.173859,135.059906 
M414.373535,153.779587 
	C419.988586,151.421082 425.603638,149.062561 431.184204,146.718521 
	C427.940125,137.055389 421.703186,132.361206 413.577362,133.163193 
	C405.292603,133.980835 399.450165,140.129135 398.451996,149.080353 
	C397.490265,157.704971 402.486511,165.561157 410.512451,168.044418 
	C418.702179,170.578354 426.548706,167.718628 430.694885,160.551651 
	C428.798401,159.312515 426.894653,158.068604 425.057251,156.868057 
	C417.870026,163.410385 412.067352,163.189102 408.165100,156.359726 
	C410.005554,155.585602 411.836060,154.815674 414.373535,153.779587 
M537.970520,134.139206 
	C535.993164,134.139206 534.015747,134.139206 531.419739,134.139206 
	C532.165771,136.102127 532.676758,137.637115 533.322327,139.113205 
	C536.706726,146.851044 540.322876,154.496536 543.400085,162.353668 
	C544.224548,164.458649 544.021606,167.389954 543.274414,169.598160 
	C541.722473,174.185043 539.490356,178.541794 537.522949,183.026962 
	C543.463440,184.727295 546.352234,182.943436 548.485229,177.522812 
	C553.576477,164.584747 559.463013,151.959900 565.011658,139.201309 
	C565.683716,137.656021 566.253174,136.066116 566.970093,134.242737 
	C563.645691,134.242737 560.997925,134.242737 558.185791,134.242737 
	C555.318604,141.327484 552.463745,148.381897 549.184753,156.484344 
	C546.850830,150.893051 545.121521,146.450928 543.144287,142.122055 
	C541.890991,139.378143 540.268372,136.802917 537.970520,134.139206 
M394.861023,165.133606 
	C394.861023,148.726761 394.861023,132.319931 394.861023,115.747818 
	C391.904541,115.747818 389.497650,115.747818 387.173462,115.747818 
	C387.173462,133.248718 387.173462,150.454010 387.173462,168.865555 
	C390.181763,167.764969 392.515411,166.911224 394.861023,165.133606 
M496.174347,162.371201 
	C496.174347,146.839981 496.174347,131.308746 496.174347,115.767822 
	C493.067841,115.767822 490.651886,115.767822 488.317078,115.767822 
	C488.317078,133.244904 488.317078,150.435944 488.317078,167.547455 
	C491.052063,167.547455 493.456757,167.547455 496.174347,167.547455 
	C496.174347,165.948334 496.174347,164.643326 496.174347,162.371201 
M234.278595,91.739807 
	C228.819519,94.364334 223.994598,93.853416 221.090363,90.343315 
	C218.320953,86.996178 218.280579,82.249908 220.992310,78.814697 
	C223.757187,75.312180 228.189926,74.850121 233.677429,77.017731 
	C234.840118,77.477013 236.555923,76.536102 238.837830,76.074104 
	C231.731522,70.492966 224.131210,70.420921 219.093704,74.990799 
	C214.661362,79.011688 213.477478,85.946098 216.380157,90.884773 
	C219.640793,96.432442 227.589478,98.939621 233.909775,96.414001 
	C239.416641,94.213432 241.615707,89.916420 240.367645,83.795082 
	C229.482147,82.523750 228.276443,82.842651 228.380493,87.312897 
	C230.984680,87.312897 233.602966,87.312897 236.935410,87.312897 
	C236.072998,88.955818 235.506256,90.035492 234.278595,91.739807 
M332.484161,95.128532 
	C340.164246,100.064468 351.027283,96.481186 353.022736,88.077866 
	C354.626709,81.323120 351.746979,75.227989 345.557190,72.618835 
	C339.580811,70.099640 332.371246,72.195221 328.882751,77.465561 
	C325.189911,83.044586 326.319183,89.572433 332.484161,95.128532 
M365.180725,77.248322 
	C363.227936,74.525467 362.537567,69.964890 357.043793,71.938644 
	C357.043793,79.526978 356.940308,87.166786 357.175629,94.796150 
	C357.204834,95.742790 359.033936,96.633919 360.029022,97.550766 
	C360.426819,97.203529 360.824646,96.856285 361.222473,96.509048 
	C361.222473,90.810730 361.222473,85.112419 361.222473,78.220795 
	C364.992188,84.306374 367.958405,89.437737 371.309509,94.304024 
	C372.370087,95.844101 374.458740,96.676193 376.830109,98.370453 
	C376.830109,88.425926 376.830109,80.029381 376.830109,71.383751 
	C370.550354,71.654320 373.599731,76.200150 373.178162,78.700302 
	C372.654816,81.803772 373.052734,85.062592 373.052734,89.639557 
	C370.002502,84.806641 367.804718,81.324379 365.180725,77.248322 
M256.554810,86.237030 
	C257.230011,85.541718 257.905212,84.846397 258.580414,84.151093 
	C257.767273,83.564728 256.991608,82.547310 256.133972,82.472748 
	C253.555573,82.248604 250.945236,82.391983 248.189117,82.391983 
	C248.189117,79.767456 248.189117,77.646706 248.189117,75.205475 
	C251.970993,75.205475 255.591797,75.205475 259.199341,75.205475 
	C259.304108,71.085655 254.158936,70.079987 244.143829,71.990028 
	C244.143829,80.254219 244.143829,88.542931 244.143829,97.237801 
	C248.544800,97.237801 252.845474,97.323105 257.137299,97.166275 
	C258.002075,97.134682 258.833282,96.184845 259.679962,95.658363 
	C258.861237,94.903358 258.096191,93.580719 257.213989,93.497322 
	C254.297638,93.221634 251.338989,93.393349 248.212372,93.393349 
	C248.212372,90.832809 248.212372,88.714157 248.212372,86.239288 
	C250.769516,86.239288 253.237549,86.239288 256.554810,86.237030 
M304.996246,75.332130 
	C305.410095,76.791573 306.144257,78.243011 306.180939,79.711876 
	C306.321442,85.334190 306.237762,90.962105 306.237762,96.921722 
	C307.824158,96.921722 309.181976,96.921722 310.836121,96.921722 
	C310.836121,89.646049 310.836121,82.707138 310.836121,75.272026 
	C312.583405,75.272026 314.094727,75.503166 315.479736,75.184792 
	C316.302551,74.995651 316.926453,73.941101 317.639771,73.275620 
	C317.042450,72.637581 316.460266,71.463608 315.845337,71.446198 
	C310.868530,71.305244 305.883362,71.315048 300.907562,71.482040 
	C300.336548,71.501205 299.383514,72.769341 299.386139,73.455391 
	C299.388428,74.059677 300.384552,74.938972 301.115845,75.190346 
	C302.009155,75.497406 303.084076,75.275948 304.996246,75.332130 
M273.762085,92.125992 
	C273.762085,86.662804 273.762085,81.199615 273.762085,75.569061 
	C275.266327,75.452301 276.485352,75.590561 277.517334,75.214928 
	C278.647522,74.803566 279.604919,73.917664 280.637634,73.238579 
	C279.530426,72.603874 278.450592,71.486496 277.311035,71.421814 
	C273.337158,71.196243 269.328979,71.151245 265.364197,71.445862 
	C264.159393,71.535385 263.052582,72.944176 261.900879,73.748734 
	C262.171936,74.176620 262.442963,74.604515 262.713989,75.032402 
	C264.791199,75.212440 266.868408,75.392487 269.237213,75.597801 
	C269.237213,82.824509 269.237213,89.752602 269.237213,96.681389 
	C273.469971,98.340790 274.097626,96.234283 273.762085,92.125992 
M294.501770,71.456200 
	C293.682404,72.358612 292.180328,73.240715 292.152771,74.166687 
	C291.950775,80.955574 291.922089,87.757713 292.170532,94.543533 
	C292.209656,95.611702 293.925415,96.618500 295.359192,98.196556 
	C295.359192,88.304016 295.359192,79.936508 294.501770,71.456200 
z"/>
<path fill="#4285F2" opacity="1.000000" stroke="none" 
	d="
M84.715622,170.615234 
	C84.477478,169.158646 84.033745,167.702332 84.031647,166.245407 
	C83.992493,139.130768 84.003769,112.016052 84.018410,84.901360 
	C84.018860,84.074875 84.169525,83.248474 84.732330,82.276031 
	C99.858711,96.814781 114.502914,111.499535 128.986099,126.474167 
	C114.121918,141.381088 99.418770,155.998169 84.715622,170.615234 
z"/>
<path fill="#E74435" opacity="1.000000" stroke="none" 
	d="
M84.755524,170.944855 
	C99.418770,155.998169 114.121918,141.381088 129.165817,126.473358 
	C129.506561,126.182686 129.865860,126.192963 130.032410,126.476753 
	C137.490997,134.207138 144.783051,141.653732 152.075104,149.100311 
	C135.413834,158.797455 118.837967,168.645905 102.051254,178.120819 
	C94.855629,182.182236 88.166046,179.233521 84.755524,170.944855 
z"/>
<path fill="#34A752" opacity="1.000000" stroke="none" 
	d="
M129.865860,126.192963 
	C129.865860,126.192963 129.506561,126.182686 129.326843,126.183487 
	C114.502914,111.499535 99.858711,96.814781 84.931305,81.888664 
	C87.444679,72.619606 94.806808,69.716728 103.425026,74.621635 
	C119.589531,83.821396 135.627197,93.244003 151.789871,103.143356 
	C144.530029,111.206184 137.197952,118.699577 129.865860,126.192963 
z"/>
<path fill="#F8BA04" opacity="1.000000" stroke="none" 
	d="
M130.032410,126.476753 
	C137.197952,118.699577 144.530029,111.206184 152.020416,103.412033 
	C159.649506,107.357002 167.295471,111.326385 174.544357,115.922119 
	C182.641785,121.055840 182.178238,131.809906 173.844238,136.823776 
	C166.896042,141.003906 159.798462,144.935760 152.421082,149.038940 
	C144.783051,141.653732 137.490997,134.207138 130.032410,126.476753 
z"/>
<path fill="#F3F3F3" opacity="1.000000" stroke="none" 
	d="
M245.320877,160.817688 
	C252.866577,158.903564 257.957214,155.073730 259.218262,146.721466 
	C253.330444,146.721466 247.755371,146.721466 241.820053,146.721466 
	C241.820053,143.864288 241.820053,141.474091 241.820053,138.762604 
	C250.087433,138.762604 258.342285,138.762604 266.999298,138.762604 
	C268.318634,147.523544 266.850769,155.595306 260.130707,161.956085 
	C252.547653,169.133743 243.333435,170.389816 233.607071,167.746658 
	C222.581100,164.750320 214.896942,155.122559 213.650345,143.473663 
	C212.525726,132.964539 218.319366,122.287598 228.023193,116.986320 
	C238.054565,111.506104 250.065247,112.545494 258.913208,119.618111 
	C259.430664,120.031738 260.170624,120.167000 260.972778,120.500778 
	C258.408691,122.656837 256.668243,124.120346 255.570709,125.043236 
	C250.377686,123.880692 244.972168,121.448593 239.723358,121.749542 
	C228.744293,122.379059 221.341766,131.843094 222.039825,142.572372 
	C222.739395,153.325226 231.221603,160.989777 242.413910,160.973999 
	C243.245819,160.972824 244.077682,160.916489 245.320877,160.817688 
z"/>
<path fill="#F3F3F3" opacity="1.000000" stroke="none" 
	d="
M381.865479,144.050293 
	C381.863647,152.035538 382.073730,159.537354 381.808289,167.022308 
	C381.447174,177.204483 376.773193,182.973892 368.102722,184.607910 
	C360.017914,186.131561 352.890076,182.294144 349.018524,174.096970 
	C351.121552,173.176041 353.218933,172.257553 355.302368,171.345200 
	C360.660400,177.288010 364.273804,178.705948 368.894440,176.703033 
	C372.432892,175.169205 373.971008,171.888474 373.794800,165.736206 
	C368.694611,169.136627 363.432373,169.962479 357.886902,167.447220 
	C349.063965,163.445404 345.035950,152.874847 348.936676,143.878494 
	C353.009644,134.485046 362.108185,131.121201 372.006714,135.245575 
	C372.563904,135.477737 373.482697,134.666351 374.259796,134.579758 
	C376.520844,134.327866 378.795441,134.197540 381.865479,133.956696 
	C381.865479,137.400238 381.865479,140.479782 381.865479,144.050293 
M359.325775,159.371872 
	C362.595306,159.801865 366.154602,161.254730 369.068451,160.429245 
	C373.790070,159.091614 375.734100,152.141342 373.797180,146.782028 
	C372.114319,142.125656 367.909821,139.773209 363.150726,140.825211 
	C358.303192,141.896729 354.913513,146.755463 355.792572,152.190002 
	C356.166260,154.500107 357.715393,156.620056 359.325775,159.371872 
z"/>
<path fill="#F8F8F8" opacity="1.000000" stroke="none" 
	d="
M447.987610,152.994919 
	C447.987610,140.337677 447.987610,128.179642 447.987610,115.874252 
	C455.661621,115.874252 463.168762,115.265327 470.532227,116.033745 
	C479.069183,116.924622 484.451599,124.367203 484.010315,133.000259 
	C483.609650,140.838211 476.873322,147.495956 468.628387,147.952957 
	C464.669128,148.172409 460.687653,147.990768 456.184082,147.990768 
	C456.184082,151.436905 456.184082,154.552628 456.184082,157.668365 
	C456.184082,160.829407 456.184082,163.990433 456.184082,167.500732 
	C453.577637,167.500732 451.162354,167.500732 447.987610,167.500732 
	C447.987610,163.011993 447.987610,158.253067 447.987610,152.994919 
M475.299774,128.514252 
	C472.793671,122.737564 468.467651,122.029388 456.418457,123.695534 
	C456.418457,129.136200 456.418457,134.570358 456.418457,140.485474 
	C459.784485,140.485474 462.912018,140.549942 466.036011,140.472458 
	C473.232788,140.293991 476.414459,136.532257 475.299774,128.514252 
z"/>
<path fill="#F6F6F6" opacity="1.000000" stroke="none" 
	d="
M512.558716,145.527100 
	C516.197021,145.713165 519.428345,145.964508 524.253845,146.339874 
	C521.837952,144.129135 520.365112,141.963028 518.337952,141.101944 
	C514.481689,139.463882 510.865204,140.557724 507.972717,144.154160 
	C505.746490,143.218796 503.529999,142.287521 501.287994,141.345535 
	C504.803284,134.462219 511.673401,131.635345 519.582031,133.519073 
	C526.878967,135.257065 530.901550,140.005341 530.996948,147.234421 
	C531.084656,153.885452 531.015564,160.538559 531.015564,167.658630 
	C527.977478,167.160202 524.432556,170.137283 523.208984,166.610489 
	C518.605347,167.224442 514.141479,168.638275 509.872650,168.191040 
	C503.947784,167.570282 500.430634,163.078033 500.146729,157.834671 
	C499.868103,152.689667 502.696228,148.752304 508.314758,146.607071 
	C509.543701,146.137863 510.870148,145.923904 512.558716,145.527100 
M511.475189,161.077744 
	C518.428406,162.059174 521.685669,159.922455 523.049622,152.492889 
	C519.355835,152.492889 515.716370,151.872528 512.399353,152.641968 
	C507.720856,153.727188 507.213013,157.341034 511.475189,161.077744 
z"/>
<path fill="#F4F4F4" opacity="1.000000" stroke="none" 
	d="
M309.401855,145.538208 
	C312.964172,136.737015 320.219482,132.187561 328.696442,133.184250 
	C336.794647,134.136414 342.878815,139.904922 344.156219,147.841934 
	C345.531189,156.385162 341.811035,163.703369 334.326569,167.178543 
	C326.739868,170.701187 317.918579,168.782028 312.578339,162.425323 
	C308.463165,157.526855 308.249023,151.828491 309.401855,145.538208 
M335.485565,155.451813 
	C335.800812,153.999695 336.343811,152.554764 336.389954,151.094147 
	C336.547455,146.105713 333.235535,141.776886 328.706177,140.795853 
	C323.907227,139.756439 319.328949,142.253006 317.507172,146.902756 
	C315.519684,151.975433 317.463593,157.736893 322.033325,160.317673 
	C326.735657,162.973343 331.332581,161.513000 335.485565,155.451813 
z"/>
<path fill="#F5F5F5" opacity="1.000000" stroke="none" 
	d="
M296.508911,135.241150 
	C305.340973,141.401657 308.042908,150.219086 304.000183,158.775986 
	C300.228088,166.760117 291.520935,170.604248 282.737854,168.163101 
	C273.260956,165.529114 267.881287,156.072540 270.339142,146.368423 
	C272.654327,137.227753 282.174438,131.404175 291.469574,133.508301 
	C293.072601,133.871170 294.607483,134.535065 296.508911,135.241150 
M284.300781,141.116379 
	C279.511108,143.415680 277.481018,147.301300 278.063904,152.478424 
	C278.527954,156.600052 280.715485,159.637207 284.720459,160.990921 
	C288.739807,162.349487 292.380005,161.380341 295.041260,158.098373 
	C298.163788,154.247543 298.559845,149.878067 296.125275,145.518219 
	C293.710297,141.193542 289.886047,139.807953 284.300781,141.116379 
z"/>
<path fill="#F4F4F4" opacity="1.000000" stroke="none" 
	d="
M414.020020,153.912659 
	C411.836060,154.815674 410.005554,155.585602 408.165100,156.359726 
	C412.067352,163.189102 417.870026,163.410385 425.057251,156.868057 
	C426.894653,158.068604 428.798401,159.312515 430.694885,160.551651 
	C426.548706,167.718628 418.702179,170.578354 410.512451,168.044418 
	C402.486511,165.561157 397.490265,157.704971 398.451996,149.080353 
	C399.450165,140.129135 405.292603,133.980835 413.577362,133.163193 
	C421.703186,132.361206 427.940125,137.055389 431.184204,146.718521 
	C425.603638,149.062561 419.988586,151.421082 414.020020,153.912659 
M411.632599,148.055588 
	C414.953735,146.652679 418.274841,145.249771 421.787018,143.766159 
	C419.258820,140.463943 416.386475,139.455048 412.845184,140.832016 
	C408.823273,142.395844 406.704437,145.324783 406.426910,150.130829 
	C408.232574,149.394745 409.578278,148.846176 411.632599,148.055588 
z"/>
<path fill="#F4F4F4" opacity="1.000000" stroke="none" 
	d="
M538.390930,134.145630 
	C540.268372,136.802917 541.890991,139.378143 543.144287,142.122055 
	C545.121521,146.450928 546.850830,150.893051 549.184753,156.484344 
	C552.463745,148.381897 555.318604,141.327484 558.185791,134.242737 
	C560.997925,134.242737 563.645691,134.242737 566.970093,134.242737 
	C566.253174,136.066116 565.683716,137.656021 565.011658,139.201309 
	C559.463013,151.959900 553.576477,164.584747 548.485229,177.522812 
	C546.352234,182.943436 543.463440,184.727295 537.522949,183.026962 
	C539.490356,178.541794 541.722473,174.185043 543.274414,169.598160 
	C544.021606,167.389954 544.224548,164.458649 543.400085,162.353668 
	C540.322876,154.496536 536.706726,146.851044 533.322327,139.113205 
	C532.676758,137.637115 532.165771,136.102127 531.419739,134.139206 
	C534.015747,134.139206 535.993164,134.139206 538.390930,134.145630 
z"/>
<path fill="#F4F4F4" opacity="1.000000" stroke="none" 
	d="
M394.855042,165.595535 
	C392.515411,166.911224 390.181763,167.764969 387.173462,168.865555 
	C387.173462,150.454010 387.173462,133.248718 387.173462,115.747818 
	C389.497650,115.747818 391.904541,115.747818 394.861023,115.747818 
	C394.861023,132.319931 394.861023,148.726761 394.855042,165.595535 
z"/>
<path fill="#FBFBFB" opacity="1.000000" stroke="none" 
	d="
M496.174347,162.854767 
	C496.174347,164.643326 496.174347,165.948334 496.174347,167.547455 
	C493.456757,167.547455 491.052063,167.547455 488.317078,167.547455 
	C488.317078,150.435944 488.317078,133.244904 488.317078,115.767822 
	C490.651886,115.767822 493.067841,115.767822 496.174347,115.767822 
	C496.174347,131.308746 496.174347,146.839981 496.174347,162.854767 
z"/>
<path fill="#EBEBEB" opacity="1.000000" stroke="none" 
	d="
M234.609039,91.427483 
	C235.506256,90.035492 236.072998,88.955818 236.935410,87.312897 
	C233.602966,87.312897 230.984680,87.312897 228.380493,87.312897 
	C228.276443,82.842651 229.482147,82.523750 240.367645,83.795082 
	C241.615707,89.916420 239.416641,94.213432 233.909775,96.414001 
	C227.589478,98.939621 219.640793,96.432442 216.380157,90.884773 
	C213.477478,85.946098 214.661362,79.011688 219.093704,74.990799 
	C224.131210,70.420921 231.731522,70.492966 238.837830,76.074104 
	C236.555923,76.536102 234.840118,77.477013 233.677429,77.017731 
	C228.189926,74.850121 223.757187,75.312180 220.992310,78.814697 
	C218.280579,82.249908 218.320953,86.996178 221.090363,90.343315 
	C223.994598,93.853416 228.819519,94.364334 234.609039,91.427483 
z"/>
<path fill="#EEEEEE" opacity="1.000000" stroke="none" 
	d="
M332.174591,94.916885 
	C326.319183,89.572433 325.189911,83.044586 328.882751,77.465561 
	C332.371246,72.195221 339.580811,70.099640 345.557190,72.618835 
	C351.746979,75.227989 354.626709,81.323120 353.022736,88.077866 
	C351.027283,96.481186 340.164246,100.064468 332.174591,94.916885 
M336.326477,76.174522 
	C332.380981,78.246681 330.408844,81.551460 331.115967,85.925598 
	C331.702789,89.555443 333.791992,92.288719 337.684845,93.131866 
	C341.535126,93.965782 345.615784,93.553574 347.230865,89.918701 
	C348.532745,86.988686 348.891663,82.732994 347.738983,79.832382 
	C346.025879,75.521454 341.605988,74.790558 336.326477,76.174522 
z"/>
<path fill="#EFEFEF" opacity="1.000000" stroke="none" 
	d="
M365.393860,77.545219 
	C367.804718,81.324379 370.002502,84.806641 373.052734,89.639557 
	C373.052734,85.062592 372.654816,81.803772 373.178162,78.700302 
	C373.599731,76.200150 370.550354,71.654320 376.830109,71.383751 
	C376.830109,80.029381 376.830109,88.425926 376.830109,98.370453 
	C374.458740,96.676193 372.370087,95.844101 371.309509,94.304024 
	C367.958405,89.437737 364.992188,84.306374 361.222473,78.220795 
	C361.222473,85.112419 361.222473,90.810730 361.222473,96.509048 
	C360.824646,96.856285 360.426819,97.203529 360.029022,97.550766 
	C359.033936,96.633919 357.204834,95.742790 357.175629,94.796150 
	C356.940308,87.166786 357.043793,79.526978 357.043793,71.938644 
	C362.537567,69.964890 363.227936,74.525467 365.393860,77.545219 
z"/>
<path fill="#E3E3E3" opacity="1.000000" stroke="none" 
	d="
M256.130188,86.238159 
	C253.237549,86.239288 250.769516,86.239288 248.212372,86.239288 
	C248.212372,88.714157 248.212372,90.832809 248.212372,93.393349 
	C251.338989,93.393349 254.297638,93.221634 257.213989,93.497322 
	C258.096191,93.580719 258.861237,94.903358 259.679962,95.658371 
	C258.833282,96.184845 258.002075,97.134682 257.137299,97.166275 
	C252.845474,97.323105 248.544800,97.237801 244.143829,97.237801 
	C244.143829,88.542931 244.143829,80.254219 244.143829,71.990028 
	C254.158936,70.079987 259.304108,71.085655 259.199341,75.205475 
	C255.591797,75.205475 251.970993,75.205475 248.189117,75.205475 
	C248.189117,77.646706 248.189117,79.767456 248.189117,82.391983 
	C250.945236,82.391983 253.555573,82.248604 256.133972,82.472748 
	C256.991608,82.547310 257.767273,83.564728 258.580414,84.151093 
	C257.905212,84.846397 257.230011,85.541718 256.130188,86.238159 
z"/>
<path fill="#D5D5D5" opacity="1.000000" stroke="none" 
	d="
M304.538361,75.307587 
	C303.084076,75.275948 302.009155,75.497406 301.115845,75.190346 
	C300.384552,74.938972 299.388428,74.059677 299.386139,73.455391 
	C299.383514,72.769341 300.336548,71.501205 300.907562,71.482040 
	C305.883362,71.315048 310.868530,71.305244 315.845337,71.446198 
	C316.460266,71.463608 317.042450,72.637581 317.639771,73.275627 
	C316.926453,73.941101 316.302551,74.995651 315.479736,75.184792 
	C314.094727,75.503166 312.583405,75.272026 310.836121,75.272026 
	C310.836121,82.707138 310.836121,89.646049 310.836121,96.921722 
	C309.181976,96.921722 307.824158,96.921722 306.237762,96.921722 
	C306.237762,90.962105 306.321442,85.334190 306.180939,79.711876 
	C306.144257,78.243011 305.410095,76.791573 304.538361,75.307587 
z"/>
<path fill="#D5D5D5" opacity="1.000000" stroke="none" 
	d="
M273.762085,92.573227 
	C274.097626,96.234283 273.469971,98.340790 269.237213,96.681389 
	C269.237213,89.752602 269.237213,82.824509 269.237213,75.597801 
	C266.868408,75.392487 264.791199,75.212440 262.713989,75.032402 
	C262.442963,74.604515 262.171936,74.176620 261.900879,73.748734 
	C263.052582,72.944176 264.159393,71.535385 265.364197,71.445862 
	C269.328979,71.151245 273.337158,71.196243 277.311035,71.421814 
	C278.450592,71.486496 279.530426,72.603874 280.637634,73.238571 
	C279.604919,73.917664 278.647522,74.803566 277.517334,75.214928 
	C276.485352,75.590561 275.266327,75.452301 273.762085,75.569061 
	C273.762085,81.199615 273.762085,86.662804 273.762085,92.573227 
z"/>
<path fill="#EFEFEF" opacity="1.000000" stroke="none" 
	d="
M294.930481,71.512604 
	C295.359192,79.936508 295.359192,88.304016 295.359192,98.196556 
	C293.925415,96.618500 292.209656,95.611702 292.170532,94.543533 
	C291.922089,87.757713 291.950775,80.955574 292.152771,74.166687 
	C292.180328,73.240715 293.682404,72.358612 294.930481,71.512604 
z"/>
<path fill="#040404" opacity="1.000000" stroke="none" 
	d="
M359.028076,159.099152 
	C357.715393,156.620056 356.166260,154.500107 355.792572,152.190002 
	C354.913513,146.755463 358.303192,141.896729 363.150726,140.825211 
	C367.909821,139.773209 372.114319,142.125656 373.797180,146.782028 
	C375.734100,152.141342 373.790070,159.091614 369.068451,160.429245 
	C366.154602,161.254730 362.595306,159.801865 359.028076,159.099152 
z"/>
<path fill="#050505" opacity="1.000000" stroke="none" 
	d="
M475.469421,128.866638 
	C476.414459,136.532257 473.232788,140.293991 466.036011,140.472458 
	C462.912018,140.549942 459.784485,140.485474 456.418457,140.485474 
	C456.418457,134.570358 456.418457,129.136200 456.418457,123.695534 
	C468.467651,122.029388 472.793671,122.737564 475.469421,128.866638 
z"/>
<path fill="#0F0F0F" opacity="1.000000" stroke="none" 
	d="
M511.113281,160.983582 
	C507.213013,157.341034 507.720856,153.727188 512.399353,152.641968 
	C515.716370,151.872528 519.355835,152.492889 523.049622,152.492889 
	C521.685669,159.922455 518.428406,162.059174 511.113281,160.983582 
z"/>
<path fill="#030303" opacity="1.000000" stroke="none" 
	d="
M335.289764,155.810211 
	C331.332581,161.513000 326.735657,162.973343 322.033325,160.317673 
	C317.463593,157.736893 315.519684,151.975433 317.507172,146.902756 
	C319.328949,142.253006 323.907227,139.756439 328.706177,140.795853 
	C333.235535,141.776886 336.547455,146.105713 336.389954,151.094147 
	C336.343811,152.554764 335.800812,153.999695 335.289764,155.810211 
z"/>
<path fill="#050505" opacity="1.000000" stroke="none" 
	d="
M284.705444,141.011932 
	C289.886047,139.807953 293.710297,141.193542 296.125275,145.518219 
	C298.559845,149.878067 298.163788,154.247543 295.041260,158.098373 
	C292.380005,161.380341 288.739807,162.349487 284.720459,160.990921 
	C280.715485,159.637207 278.527954,156.600052 278.063904,152.478424 
	C277.481018,147.301300 279.511108,143.415680 284.705444,141.011932 
z"/>
<path fill="#121212" opacity="1.000000" stroke="none" 
	d="
M411.278259,148.176605 
	C409.578278,148.846176 408.232574,149.394745 406.426910,150.130829 
	C406.704437,145.324783 408.823273,142.395844 412.845184,140.832016 
	C416.386475,139.455048 419.258820,140.463943 421.787018,143.766159 
	C418.274841,145.249771 414.953735,146.652679 411.278259,148.176605 
z"/>
<path fill="#050505" opacity="1.000000" stroke="none" 
	d="
M336.736603,76.078278 
	C341.605988,74.790558 346.025879,75.521454 347.738983,79.832382 
	C348.891663,82.732994 348.532745,86.988686 347.230865,89.918701 
	C345.615784,93.553574 341.535126,93.965782 337.684845,93.131866 
	C333.791992,92.288719 331.702789,89.555443 331.115967,85.925598 
	C330.408844,81.551460 332.380981,78.246681 336.736603,76.078278 
z"/>
</svg>