<?xml version="1.0" encoding="UTF-8"?>
<svg version="1.1" xmlns="http://www.w3.org/2000/svg" width="190" height="190">
<path d="M0 0 C2.3464401 0.00851109 4.69289709 0.01315857 7.03935242 0.01412964 C11.93953609 0.02641966 16.83787644 0.07162392 21.73754883 0.14306641 C28.0134912 0.23386094 34.28777437 0.26313375 40.56431293 0.27054024 C45.40203656 0.2793999 50.23941334 0.31000744 55.07698631 0.3482933 C57.39139145 0.36602673 59.70583333 0.37950175 62.02028847 0.38861465 C65.25154384 0.40672406 68.48130817 0.45151395 71.7121582 0.50439453 C72.66448334 0.50572388 73.61680847 0.50705322 74.59799194 0.50842285 C80.205946 0.63494807 83.51460154 1.35350778 87.94921875 5.1171875 C92.41792919 10.18977773 93.09442597 13.1687981 93.06274414 19.77978516 C93.06289017 20.57011642 93.06303619 21.36044769 93.06318665 22.17472839 C93.06248858 24.79359661 93.05470114 27.41239417 93.046875 30.03125 C93.04501044 31.84443116 93.04358672 33.65761283 93.04258728 35.47079468 C93.03876507 40.24822373 93.0289373 45.02562249 93.0178833 49.80303955 C93.00766282 54.67598053 93.00308829 59.5489264 92.99804688 64.421875 C92.98731478 73.98699249 92.97024189 83.55208748 92.94921875 93.1171875 C96.24921875 93.1171875 99.54921875 93.1171875 102.94921875 93.1171875 C106.94921875 100.8671875 106.94921875 100.8671875 106.94921875 103.1171875 C107.67109375 103.2203125 108.39296875 103.3234375 109.13671875 103.4296875 C114.5038039 104.74164165 114.5038039 104.74164165 116.94921875 107.1171875 C117.10776253 109.85772995 116.93748339 112.52136239 116.7890625 115.26171875 C117.01023302 119.20502729 118.64793052 121.28239319 120.88671875 124.41796875 C121.94921875 126.1171875 121.94921875 126.1171875 122.01171875 128.6796875 C120.94921875 131.1171875 120.94921875 131.1171875 118.88671875 134.3046875 C116.18479655 138.71360026 116.58602545 143.10310225 116.94921875 148.1171875 C115.66008388 148.78873683 114.36781671 149.45427609 113.07421875 150.1171875 C112.35492188 150.4884375 111.635625 150.8596875 110.89453125 151.2421875 C108.94921875 152.1171875 108.94921875 152.1171875 106.94921875 152.1171875 C106.64177734 153.07431641 106.64177734 153.07431641 106.328125 154.05078125 C105.92400391 155.29021484 105.92400391 155.29021484 105.51171875 156.5546875 C105.24488281 157.37839844 104.97804687 158.20210937 104.703125 159.05078125 C103.94921875 161.1171875 103.94921875 161.1171875 102.94921875 162.1171875 C95.42683069 162.35599347 95.42683069 162.35599347 92.94921875 161.1171875 C92.995625 162.41914063 93.04203125 163.72109375 93.08984375 165.0625 C93.12737722 166.78903946 93.16377568 168.51560386 93.19921875 170.2421875 C93.24949219 171.52609375 93.24949219 171.52609375 93.30078125 172.8359375 C93.38750456 178.47295244 92.73991169 181.65795417 88.94921875 186.1171875 C84.63012868 189.92210018 82.33113629 191.23962021 76.6239624 191.26435852 C75.49397324 191.27151382 74.36398407 191.27866913 73.19975281 191.28604126 C71.33115349 191.29007462 71.33115349 191.29007462 69.42480469 191.29418945 C68.11741837 191.30076065 66.81003204 191.30733185 65.46302795 191.31410217 C61.86988905 191.33151804 58.27676346 191.34206583 54.6835928 191.3503077 C52.43856767 191.35545734 50.19354668 191.36153313 47.94852448 191.36781883 C40.9240607 191.38687381 33.89960744 191.40110347 26.87512279 191.4094308 C18.76732695 191.41920099 10.65980429 191.44551326 2.55210471 191.48593169 C-3.71464655 191.5161 -9.98131954 191.5309004 -16.248142 191.53421181 C-19.99091183 191.53656178 -23.73338994 191.54551458 -27.47608185 191.57067299 C-31.65382551 191.59830143 -35.83095984 191.59412042 -40.00878906 191.5871582 C-41.865243 191.60637329 -41.865243 191.60637329 -43.75920105 191.62597656 C-50.16039782 191.58702978 -54.20021184 191.4652341 -59.05078125 187.1171875 C-59.62828125 186.6634375 -60.20578125 186.2096875 -60.80078125 185.7421875 C-63.8739895 181.74701677 -64.30532892 176.98946193 -64.35858154 172.10331726 C-64.37578247 170.92167999 -64.3929834 169.74004272 -64.41070557 168.52259827 C-64.41922546 167.23985519 -64.42774536 165.95711212 -64.43652344 164.63549805 C-64.4523446 163.26006258 -64.46888366 161.88463522 -64.48608398 160.50921631 C-64.53828633 156.00752563 -64.56910709 151.50579988 -64.59765625 147.00390625 C-64.60838392 145.44950657 -64.61913895 143.89510708 -64.62992096 142.34070778 C-64.67313646 135.87329033 -64.71060763 129.40588241 -64.73316574 122.93835735 C-64.76564203 113.69086058 -64.83203025 104.44504427 -64.94596744 95.19818085 C-65.02348918 88.68332363 -65.0624446 82.16891481 -65.07300687 75.65360862 C-65.08029583 71.76763663 -65.10412988 67.88346164 -65.16921234 63.99799156 C-65.2296049 60.340501 -65.241926 56.68588343 -65.21844482 53.02799988 C-65.21779672 51.05784581 -65.26658309 49.08786628 -65.31719971 47.11836243 C-65.24482104 41.94087807 -65.15054087 38.49816226 -61.85529327 34.36030006 C-59.350452 32.08870431 -56.79640239 30.08620967 -54.05078125 28.1171875 C-53.00073775 27.19520109 -51.96337229 26.2581985 -50.94921875 25.296875 C-41.20433259 16.39674678 -41.20433259 16.39674678 -37.19657898 13.08499146 C-34.96149828 11.14276533 -34.96149828 11.14276533 -33.09944153 8.62716675 C-24.03657434 -1.87052238 -12.89679919 -0.23381945 0 0 Z " fill="#F0E1D0" transform="translate(66.05078125,-1.1171875)"/>
<path d="M0 0 C2.3464401 0.00851109 4.69289709 0.01315857 7.03935242 0.01412964 C11.93953609 0.02641966 16.83787644 0.07162392 21.73754883 0.14306641 C28.0134912 0.23386094 34.28777437 0.26313375 40.56431293 0.27054024 C45.40203656 0.2793999 50.23941334 0.31000744 55.07698631 0.3482933 C57.39139145 0.36602673 59.70583333 0.37950175 62.02028847 0.38861465 C65.25154384 0.40672406 68.48130817 0.45151395 71.7121582 0.50439453 C72.66448334 0.50572388 73.61680847 0.50705322 74.59799194 0.50842285 C80.205946 0.63494807 83.51460154 1.35350778 87.94921875 5.1171875 C92.41792919 10.18977773 93.09442597 13.1687981 93.06274414 19.77978516 C93.06289017 20.57011642 93.06303619 21.36044769 93.06318665 22.17472839 C93.06248858 24.79359661 93.05470114 27.41239417 93.046875 30.03125 C93.04501044 31.84443116 93.04358672 33.65761283 93.04258728 35.47079468 C93.03876507 40.24822373 93.0289373 45.02562249 93.0178833 49.80303955 C93.00766282 54.67598053 93.00308829 59.5489264 92.99804688 64.421875 C92.98731478 73.98699249 92.97024189 83.55208748 92.94921875 93.1171875 C96.24921875 93.1171875 99.54921875 93.1171875 102.94921875 93.1171875 C106.94921875 100.8671875 106.94921875 100.8671875 106.94921875 103.1171875 C107.67109375 103.2203125 108.39296875 103.3234375 109.13671875 103.4296875 C114.5038039 104.74164165 114.5038039 104.74164165 116.94921875 107.1171875 C117.10776253 109.85772995 116.93748339 112.52136239 116.7890625 115.26171875 C117.01023302 119.20502729 118.64793052 121.28239319 120.88671875 124.41796875 C121.94921875 126.1171875 121.94921875 126.1171875 122.01171875 128.6796875 C120.94921875 131.1171875 120.94921875 131.1171875 118.88671875 134.3046875 C116.18479655 138.71360026 116.58602545 143.10310225 116.94921875 148.1171875 C115.66008388 148.78873683 114.36781671 149.45427609 113.07421875 150.1171875 C112.35492188 150.4884375 111.635625 150.8596875 110.89453125 151.2421875 C108.94921875 152.1171875 108.94921875 152.1171875 106.94921875 152.1171875 C106.64177734 153.07431641 106.64177734 153.07431641 106.328125 154.05078125 C105.92400391 155.29021484 105.92400391 155.29021484 105.51171875 156.5546875 C105.24488281 157.37839844 104.97804687 158.20210937 104.703125 159.05078125 C103.94921875 161.1171875 103.94921875 161.1171875 102.94921875 162.1171875 C95.42683069 162.35599347 95.42683069 162.35599347 92.94921875 161.1171875 C92.995625 162.41914063 93.04203125 163.72109375 93.08984375 165.0625 C93.12737722 166.78903946 93.16377568 168.51560386 93.19921875 170.2421875 C93.24949219 171.52609375 93.24949219 171.52609375 93.30078125 172.8359375 C93.38750456 178.47295244 92.73991169 181.65795417 88.94921875 186.1171875 C84.63012868 189.92210018 82.33113629 191.23962021 76.6239624 191.26435852 C75.49397324 191.27151382 74.36398407 191.27866913 73.19975281 191.28604126 C71.33115349 191.29007462 71.33115349 191.29007462 69.42480469 191.29418945 C68.11741837 191.30076065 66.81003204 191.30733185 65.46302795 191.31410217 C61.86988905 191.33151804 58.27676346 191.34206583 54.6835928 191.3503077 C52.43856767 191.35545734 50.19354668 191.36153313 47.94852448 191.36781883 C40.9240607 191.38687381 33.89960744 191.40110347 26.87512279 191.4094308 C18.76732695 191.41920099 10.65980429 191.44551326 2.55210471 191.48593169 C-3.71464655 191.5161 -9.98131954 191.5309004 -16.248142 191.53421181 C-19.99091183 191.53656178 -23.73338994 191.54551458 -27.47608185 191.57067299 C-31.65382551 191.59830143 -35.83095984 191.59412042 -40.00878906 191.5871582 C-41.865243 191.60637329 -41.865243 191.60637329 -43.75920105 191.62597656 C-50.16039782 191.58702978 -54.20021184 191.4652341 -59.05078125 187.1171875 C-59.62828125 186.6634375 -60.20578125 186.2096875 -60.80078125 185.7421875 C-63.8739895 181.74701677 -64.30532892 176.98946193 -64.35858154 172.10331726 C-64.37578247 170.92167999 -64.3929834 169.74004272 -64.41070557 168.52259827 C-64.41922546 167.23985519 -64.42774536 165.95711212 -64.43652344 164.63549805 C-64.4523446 163.26006258 -64.46888366 161.88463522 -64.48608398 160.50921631 C-64.53828633 156.00752563 -64.56910709 151.50579988 -64.59765625 147.00390625 C-64.60838392 145.44950657 -64.61913895 143.89510708 -64.62992096 142.34070778 C-64.67313646 135.87329033 -64.71060763 129.40588241 -64.73316574 122.93835735 C-64.76564203 113.69086058 -64.83203025 104.44504427 -64.94596744 95.19818085 C-65.02348918 88.68332363 -65.0624446 82.16891481 -65.07300687 75.65360862 C-65.08029583 71.76763663 -65.10412988 67.88346164 -65.16921234 63.99799156 C-65.2296049 60.340501 -65.241926 56.68588343 -65.21844482 53.02799988 C-65.21779672 51.05784581 -65.26658309 49.08786628 -65.31719971 47.11836243 C-65.24482104 41.94087807 -65.15054087 38.49816226 -61.85529327 34.36030006 C-59.350452 32.08870431 -56.79640239 30.08620967 -54.05078125 28.1171875 C-53.00073775 27.19520109 -51.96337229 26.2581985 -50.94921875 25.296875 C-41.20433259 16.39674678 -41.20433259 16.39674678 -37.19657898 13.08499146 C-34.96149828 11.14276533 -34.96149828 11.14276533 -33.09944153 8.62716675 C-24.03657434 -1.87052238 -12.89679919 -0.23381945 0 0 Z M-19.05078125 6.1171875 C-19.38078125 17.6671875 -19.71078125 29.2171875 -20.05078125 41.1171875 C-32.92078125 41.4471875 -45.79078125 41.7771875 -59.05078125 42.1171875 C-59.14110351 59.61538767 -59.21477589 77.11338866 -59.25802994 94.61175728 C-59.27864807 102.73669917 -59.30675422 110.86148586 -59.35253906 118.98632812 C-59.39242992 126.06862234 -59.41821951 133.15080414 -59.42713523 140.23320758 C-59.43234623 143.98273249 -59.44457793 147.73193582 -59.47370148 151.48135757 C-59.50596352 155.66886867 -59.50673923 159.85582203 -59.50488281 164.04345703 C-59.51926392 165.28423508 -59.53364502 166.52501312 -59.54846191 167.8033905 C-59.51391809 176.27244676 -59.51391809 176.27244676 -55.05078125 183.1171875 C-51.8959529 185.95963206 -49.89563549 186.49309818 -45.67483521 186.49813843 C-44.03883362 186.51082764 -44.03883362 186.51082764 -42.36978149 186.52377319 C-41.17799286 186.5177005 -39.98620422 186.51162781 -38.75830078 186.50537109 C-36.869935 186.51325653 -36.869935 186.51325653 -34.94342041 186.52130127 C-31.49286306 186.53497428 -28.04257492 186.52967572 -24.59201288 186.52016401 C-20.97799108 186.51256396 -17.3639922 186.51961429 -13.74996948 186.52432251 C-7.67881132 186.52978047 -1.60776263 186.52258892 4.46337891 186.50830078 C11.475284 186.49198881 18.4869272 186.4972519 25.49882591 186.51378 C31.52360167 186.52741134 37.54829875 186.52930606 43.57308495 186.52146399 C47.16931009 186.51679461 50.76541232 186.51614199 54.36162949 186.52607346 C58.3738927 186.53637965 62.38570759 186.5220789 66.39794922 186.50537109 C67.58568939 186.51144379 68.77342957 186.51751648 69.99716187 186.52377319 C77.89766981 186.48024087 77.89766981 186.48024087 84.94921875 183.1171875 C89.27878655 177.63306828 88.21472048 170.74489737 87.94921875 164.1171875 C86.73234375 164.3646875 85.51546875 164.6121875 84.26171875 164.8671875 C82.1875 165.2890625 82.1875 165.2890625 79.94921875 165.1171875 C79.17578125 164.4675 78.40234375 163.8178125 77.60546875 163.1484375 C74.22346425 160.56219876 72.33378404 160.6976091 68.13671875 160.8671875 C66.97527344 160.90328125 65.81382812 160.939375 64.6171875 160.9765625 C63.73675781 161.02296875 62.85632813 161.069375 61.94921875 161.1171875 C61.74425781 160.47910156 61.53929688 159.84101563 61.328125 159.18359375 C61.05871094 158.35730469 60.78929688 157.53101563 60.51171875 156.6796875 C60.24488281 155.85597656 59.97804688 155.03226563 59.703125 154.18359375 C59.12766381 152.15499162 59.12766381 152.15499162 57.94921875 151.1171875 C56.60896333 151.00986317 55.26318297 150.97040469 53.91868591 150.95896912 C53.05065338 150.9491803 52.18262085 150.93939148 51.2882843 150.92930603 C50.32875351 150.92355057 49.36922272 150.9177951 48.38061523 150.91186523 C47.37585144 150.90196564 46.37108765 150.89206604 45.33587646 150.88186646 C41.99737954 150.85014666 38.65886836 150.82545277 35.3203125 150.80078125 C33.01245238 150.78022076 30.70459611 150.75922454 28.39674377 150.73780823 C22.30908308 150.68249403 16.22138789 150.63312612 10.13366699 150.58496094 C3.92697055 150.53481398 -2.27967551 150.47909248 -8.48632812 150.42382812 C-20.67443617 150.31613229 -32.86258788 150.21471287 -45.05078125 150.1171875 C-45.05078125 148.7971875 -45.05078125 147.4771875 -45.05078125 146.1171875 C-14.36078125 146.1171875 16.32921875 146.1171875 47.94921875 146.1171875 C49.07809783 143.85942935 49.21312487 142.37961825 49.32421875 139.8671875 C49.39769531 138.74570312 49.39769531 138.74570312 49.47265625 137.6015625 C48.6988031 133.92864757 46.83856314 131.41941048 43.94921875 129.1171875 C41.03507201 128.25005039 38.23581407 128.29884891 35.21166992 128.34423828 C34.34287201 128.33360855 33.4740741 128.32297882 32.57894897 128.31202698 C29.71610466 128.283991 26.8551061 128.29803085 23.9921875 128.3125 C22.00391531 128.30124935 20.0156564 128.28736849 18.02742004 128.27096558 C12.80107605 128.23490815 7.57531681 128.23455656 2.34887695 128.24163818 C-2.98692301 128.24255067 -8.32250333 128.20969859 -13.65820312 128.1796875 C-24.12245707 128.12580697 -34.58640393 128.10964568 -45.05078125 128.1171875 C-45.05078125 126.7971875 -45.05078125 125.4771875 -45.05078125 124.1171875 C-43.3506916 124.13384209 -43.3506916 124.13384209 -41.61625671 124.15083313 C-30.94807503 124.25208208 -20.27999049 124.32709182 -9.6114378 124.37624836 C-4.12625328 124.40236977 1.35854416 124.4378146 6.84350586 124.49438477 C12.13438419 124.54861326 17.42488966 124.57858886 22.7160244 124.59157372 C24.73714254 124.60083005 26.75823971 124.61890519 28.7791996 124.64583778 C31.60496132 124.68200638 34.42917195 124.68713798 37.25512695 124.68481445 C38.09525833 124.70279083 38.93538971 124.72076721 39.80097961 124.73928833 C42.39340818 124.77323717 42.39340818 124.77323717 45.94921875 124.1171875 C49.97821026 118.37402696 49.97821026 118.37402696 48.94921875 107.1171875 C2.41921875 106.6221875 2.41921875 106.6221875 -45.05078125 106.1171875 C-44.72078125 105.1271875 -44.39078125 104.1371875 -44.05078125 103.1171875 C6.93421875 102.6221875 6.93421875 102.6221875 58.94921875 102.1171875 C60.26921875 99.4771875 61.58921875 96.8371875 62.94921875 94.1171875 C63.67367187 94.16359375 64.398125 94.21 65.14453125 94.2578125 C71.52543096 94.49603276 74.73690334 94.08847543 79.94921875 90.1171875 C83.16369459 89.74341124 84.85897844 90.0871074 87.94921875 91.1171875 C87.99557961 81.42477158 88.03110703 71.73239389 88.05284309 62.03989124 C88.06327583 57.53916822 88.07742575 53.03852112 88.10009766 48.5378418 C88.12184417 44.19362836 88.13379122 39.8494879 88.13897324 35.50522423 C88.14266574 33.84864847 88.14987627 32.19207665 88.16067886 30.535532 C88.17521787 28.21346052 88.17719569 25.89168982 88.17626953 23.56958008 C88.18705536 22.54458656 88.18705536 22.54458656 88.19805908 21.49888611 C88.17583843 16.34296245 87.3957969 12.79708471 84.01171875 8.8671875 C81.05250623 6.35634051 78.61408893 5.99213645 74.86799622 5.99693298 C74.03928513 5.99555832 73.21057404 5.99418365 72.35675049 5.99276733 C71.45116394 5.99636261 70.54557739 5.99995789 69.61254883 6.00366211 C68.65626083 6.00351608 67.69997284 6.00337006 66.71470642 6.0032196 C63.54936465 6.00391706 60.38408151 6.0117017 57.21875 6.01953125 C55.0258538 6.02139602 52.83295719 6.02281965 50.64006042 6.02381897 C44.86474459 6.02763948 39.08945386 6.03746582 33.31414795 6.04852295 C27.42232604 6.05874706 21.53050009 6.06331874 15.63867188 6.06835938 C4.07550803 6.07908848 -7.4876306 6.09668154 -19.05078125 6.1171875 Z " fill="#514960" transform="translate(66.05078125,-1.1171875)"/>
<path d="M0 0 C1.9375 0.9375 1.9375 0.9375 3.7109375 2.4765625 C6.48072186 4.29392978 8.21803366 4.23660422 11.5 4.25 C14.4296875 4.4296875 14.4296875 4.4296875 16.9375 4.9375 C19.05259863 7.77777531 19.9375 9.40473228 19.9375 12.9375 C20.88625 13.246875 21.835 13.55625 22.8125 13.875 C25.9375 14.9375 25.9375 14.9375 27.9375 15.9375 C28.2109375 18.265625 28.2109375 18.265625 28.3125 21.1875 C28.64314361 26.10264438 29.58432639 28.24900903 32.9375 31.9375 C32.8555411 34.64214369 32.16491968 35.67544789 30.3984375 37.7109375 C28.58107022 40.48072186 28.63839578 42.21803366 28.625 45.5 C28.4453125 48.4296875 28.4453125 48.4296875 27.9375 50.9375 C25.09722469 53.05259863 23.47026772 53.9375 19.9375 53.9375 C19.628125 54.88625 19.31875 55.835 19 56.8125 C17.9375 59.9375 17.9375 59.9375 16.9375 61.9375 C14.6796875 62.2109375 14.6796875 62.2109375 11.8125 62.3125 C6.43717165 62.68393729 3.34343339 63.90230144 -1.0625 66.9375 C-1.825625 66.298125 -2.58875 65.65875 -3.375 65 C-6.49800593 62.84079255 -8.99470807 62.68701233 -12.75 62.5625 C-15.625 62.41015625 -15.625 62.41015625 -18.0625 61.9375 C-20.17759863 59.09722469 -21.0625 57.47026772 -21.0625 53.9375 C-22.01125 53.628125 -22.96 53.31875 -23.9375 53 C-27.0625 51.9375 -27.0625 51.9375 -29.0625 50.9375 C-29.3359375 48.609375 -29.3359375 48.609375 -29.4375 45.6875 C-29.76814361 40.77235562 -30.70932639 38.62599097 -34.0625 34.9375 C-33.9805411 32.23285631 -33.28991968 31.19955211 -31.5234375 29.1640625 C-29.70607022 26.39427814 -29.76339578 24.65696634 -29.75 21.375 C-29.5703125 18.4453125 -29.5703125 18.4453125 -29.0625 15.9375 C-26.22222469 13.82240137 -24.59526772 12.9375 -21.0625 12.9375 C-20.629375 11.5453125 -20.629375 11.5453125 -20.1875 10.125 C-19.0625 6.9375 -19.0625 6.9375 -17.0625 3.9375 C-14.85546875 3.78515625 -14.85546875 3.78515625 -12.25 4 C-6.85661086 4.20176708 -4.47155301 -0.13550161 0 0 Z " fill="#ECDECE" transform="translate(149.0625,93.0625)"/>
<path d="M0 0 C1.9375 0.9375 1.9375 0.9375 3.7109375 2.4765625 C6.48072186 4.29392978 8.21803366 4.23660422 11.5 4.25 C14.4296875 4.4296875 14.4296875 4.4296875 16.9375 4.9375 C19.05259863 7.77777531 19.9375 9.40473228 19.9375 12.9375 C20.88625 13.246875 21.835 13.55625 22.8125 13.875 C25.9375 14.9375 25.9375 14.9375 27.9375 15.9375 C28.2109375 18.265625 28.2109375 18.265625 28.3125 21.1875 C28.64314361 26.10264438 29.58432639 28.24900903 32.9375 31.9375 C32.8555411 34.64214369 32.16491968 35.67544789 30.3984375 37.7109375 C28.58107022 40.48072186 28.63839578 42.21803366 28.625 45.5 C28.4453125 48.4296875 28.4453125 48.4296875 27.9375 50.9375 C25.09722469 53.05259863 23.47026772 53.9375 19.9375 53.9375 C19.628125 54.88625 19.31875 55.835 19 56.8125 C17.9375 59.9375 17.9375 59.9375 16.9375 61.9375 C14.6796875 62.2109375 14.6796875 62.2109375 11.8125 62.3125 C6.43717165 62.68393729 3.34343339 63.90230144 -1.0625 66.9375 C-1.825625 66.298125 -2.58875 65.65875 -3.375 65 C-6.49800593 62.84079255 -8.99470807 62.68701233 -12.75 62.5625 C-15.625 62.41015625 -15.625 62.41015625 -18.0625 61.9375 C-20.17759863 59.09722469 -21.0625 57.47026772 -21.0625 53.9375 C-22.01125 53.628125 -22.96 53.31875 -23.9375 53 C-27.0625 51.9375 -27.0625 51.9375 -29.0625 50.9375 C-29.3359375 48.609375 -29.3359375 48.609375 -29.4375 45.6875 C-29.76814361 40.77235562 -30.70932639 38.62599097 -34.0625 34.9375 C-33.9805411 32.23285631 -33.28991968 31.19955211 -31.5234375 29.1640625 C-29.70607022 26.39427814 -29.76339578 24.65696634 -29.75 21.375 C-29.5703125 18.4453125 -29.5703125 18.4453125 -29.0625 15.9375 C-26.22222469 13.82240137 -24.59526772 12.9375 -21.0625 12.9375 C-20.629375 11.5453125 -20.629375 11.5453125 -20.1875 10.125 C-19.0625 6.9375 -19.0625 6.9375 -17.0625 3.9375 C-14.85546875 3.78515625 -14.85546875 3.78515625 -12.25 4 C-6.85661086 4.20176708 -4.47155301 -0.13550161 0 0 Z M-21.0625 17.9375 C-26.17910657 25.03472847 -25.9606669 33.51391528 -25.0625 41.9375 C-22.49301503 48.669361 -17.15058931 53.30281982 -11.0625 56.9375 C-4.78076693 59.03141102 3.37553082 59.05468583 9.71484375 57.06640625 C15.67748304 53.95767978 19.94998621 49.43931001 23.25 43.625 C25.30548601 35.58991834 25.56415759 28.5646974 21.9375 20.9375 C17.36137195 13.93445443 11.72129273 10.53209758 3.9375 7.9375 C-6.66526276 6.85003715 -13.78350489 10.33983921 -21.0625 17.9375 Z " fill="#ECDDCD" transform="translate(149.0625,93.0625)"/>
<path d="M0 0 C5.79194107 4.51993696 8.79653926 9.93044495 9.89453125 17.1796875 C10.40118053 24.37163587 8.33659895 30.90948917 4.01953125 36.6796875 C-3.29172371 43.67306181 -9.33460703 45.3083273 -19.2734375 45.09375 C-25.89730241 44.35388732 -30.48625755 41.64002728 -34.85546875 36.6796875 C-35.55671875 35.6896875 -36.25796875 34.6996875 -36.98046875 33.6796875 C-37.77710937 32.57753906 -37.77710937 32.57753906 -38.58984375 31.453125 C-41.45901429 25.73090286 -40.82192704 17.56083234 -39.4765625 11.35546875 C-36.56423886 3.94984578 -30.91747094 -0.85870704 -23.98046875 -4.3203125 C-15.12499778 -7.07457316 -7.55011478 -5.03340985 0 0 Z M-32.7890625 8.83203125 C-35.9856781 13.78940561 -36.42106515 18.72273248 -35.578125 24.41015625 C-33.99676358 30.41519535 -30.2941994 35.43161682 -25.0546875 38.76171875 C-19.84453017 41.06753226 -14.62888488 41.52540021 -9.19140625 39.7890625 C-2.83030313 36.82430057 0.37540323 33.57108506 3.83203125 27.4921875 C5.71609346 21.4433562 4.95008594 16.27544532 2.83203125 10.3671875 C0.61835212 7.08483569 -1.80355975 5.03060016 -4.98046875 2.6796875 C-5.72296875 2.0815625 -6.46546875 1.4834375 -7.23046875 0.8671875 C-17.03863353 -3.36815638 -26.5626932 0.84124123 -32.7890625 8.83203125 Z " fill="#564D63" transform="translate(163.98046875,106.3203125)"/>
<path d="M0 0 C1.31493769 0.00138269 1.31493769 0.00138269 2.65643978 0.00279331 C4.16042828 0.00073132 4.16042828 0.00073132 5.69480038 -0.00137234 C7.35851429 0.00402058 7.35851429 0.00402058 9.05583858 0.00952244 C10.21665951 0.00937641 11.37748043 0.00923038 12.57347775 0.00907993 C16.43146759 0.00977966 20.28940985 0.01757485 24.14739132 0.02539158 C26.81397235 0.02725555 29.48055071 0.02872871 32.14713192 0.0296793 C38.46177386 0.03279235 44.77639858 0.04100539 51.09103292 0.05102879 C58.2783414 0.06219073 65.46565068 0.06770058 72.65296566 0.07272422 C87.44148096 0.08318802 102.22998272 0.10078696 117.01848507 0.12304783 C117.58098507 2.06054783 117.58098507 2.06054783 118.01848507 4.12304783 C117.01848507 5.12304783 117.01848507 5.12304783 115.03697014 5.24609566 C113.72203245 5.24471297 113.72203245 5.24471297 112.38053036 5.24330235 C111.37787136 5.24467701 110.37521236 5.24605167 109.34216976 5.24746799 C108.23302715 5.24387272 107.12388454 5.24027744 105.98113155 5.23657322 C104.82031063 5.23671925 103.65948971 5.23686527 102.46349239 5.23701572 C98.60550255 5.236316 94.74756029 5.22852081 90.88957882 5.22070408 C88.22299779 5.21884011 85.55641943 5.21736695 82.88983822 5.21641636 C76.57519627 5.21330331 70.26057156 5.20509027 63.94593722 5.19506687 C56.75862874 5.18390493 49.57131946 5.17839508 42.38400447 5.17337143 C27.59548918 5.16290763 12.80698742 5.14530869 -1.98151493 5.12304783 C-2.54401493 3.18554783 -2.54401493 3.18554783 -2.98151493 1.12304783 C-1.98151493 0.12304783 -1.98151493 0.12304783 0 0 Z " fill="#514960" transform="translate(22.981514930725098,166.87695217132568)"/>
<path d="M0 0 C0.86187644 0.00092179 1.72375288 0.00184359 2.61174679 0.00279331 C4.09049282 0.00073132 4.09049282 0.00073132 5.59911251 -0.00137234 C6.68955364 0.00222294 7.77999477 0.00581821 8.90347958 0.00952244 C10.04479336 0.00937641 11.18610714 0.00923038 12.36200619 0.00907993 C16.15506512 0.00977965 19.94807565 0.01757476 23.74112606 0.02539158 C26.36286549 0.02725555 28.98460527 0.02867955 31.60634518 0.0296793 C37.81473936 0.03279232 44.02311602 0.04100531 50.23150247 0.05102879 C57.29789422 0.06219084 64.3642868 0.06770061 71.43068516 0.07272422 C85.97037244 0.08318795 100.51004588 0.10078682 115.04971981 0.12304783 C116.03971981 2.10304783 116.03971981 2.10304783 117.04971981 4.12304783 C116.04971981 5.12304783 116.04971981 5.12304783 114.06820488 5.24609566 C112.75326719 5.24471297 112.75326719 5.24471297 111.4117651 5.24330235 C110.4091061 5.24467701 109.40644711 5.24605167 108.3734045 5.24746799 C107.26426189 5.24387272 106.15511929 5.24027744 105.01236629 5.23657322 C103.85154537 5.23671925 102.69072445 5.23686527 101.49472713 5.23701572 C97.63673729 5.236316 93.77879503 5.22852081 89.92081356 5.22070408 C87.25423253 5.21884011 84.58765417 5.21736695 81.92107296 5.21641636 C75.60643102 5.21330331 69.2918063 5.20509027 62.97717196 5.19506687 C55.78986348 5.18390493 48.6025542 5.17839508 41.41523921 5.17337143 C26.62672392 5.16290763 11.83822216 5.14530869 -2.95028019 5.12304783 C-2.95028019 0.18614021 -2.95028019 0.18614021 0 0 Z " fill="#595065" transform="translate(23.95028018951416,78.87695217132568)"/>
<path d="M0 0 C39.27 0 78.54 0 119 0 C119.495 1.98 119.495 1.98 120 4 C80.07 4 40.14 4 -1 4 C-0.67 2.68 -0.34 1.36 0 0 Z " fill="#4D455D" transform="translate(21,58)"/>
<path d="M0 0 C0.66 0 1.32 0 2 0 C2 8.91 2 17.82 2 27 C-8.23 27 -18.46 27 -29 27 C-23.36281179 21.36281179 -23.36281179 21.36281179 -20.73046875 18.9140625 C-20.15522461 18.37885986 -19.57998047 17.84365723 -18.98730469 17.29223633 C-18.39336914 16.74204834 -17.79943359 16.19186035 -17.1875 15.625 C-16.57165039 15.05354248 -15.95580078 14.48208496 -15.32128906 13.89331055 C-11.42163609 10.28546485 -7.4840645 6.73088148 -3.453125 3.26953125 C-2.25939375 2.22662089 -1.12086045 1.12086045 0 0 Z " fill="#EFE0D0" transform="translate(40,9)"/>
<path d="M0 0 C0.74446381 0.00359528 1.48892761 0.00719055 2.25595093 0.01089478 C3.0363826 0.01074875 3.81681427 0.01060272 4.62089539 0.01045227 C7.21273534 0.01115158 9.80450432 0.01894481 12.39633179 0.02676392 C14.18852194 0.02862803 15.9807126 0.03005196 17.77290344 0.03105164 C22.49938351 0.03487733 27.22583305 0.04470805 31.95230103 0.05575562 C36.77153104 0.06596863 41.59076596 0.07054902 46.41000366 0.07559204 C55.87290773 0.08633027 65.3357891 0.10340731 74.79867554 0.12442017 C74.46867554 1.77442017 74.13867554 3.42442017 73.79867554 5.12442017 C47.72867554 5.12442017 21.65867554 5.12442017 -5.20132446 5.12442017 C-5.53132446 3.80442017 -5.86132446 2.48442017 -6.20132446 1.12442017 C-4.48145241 -0.59545189 -2.29255418 0.00467229 0 0 Z " fill="#514960" transform="translate(66.20132446289063,35.875579833984375)"/>
<path d="M0 0 C0.73511307 0.00359528 1.47022614 0.00719055 2.22761536 0.01089478 C2.99829346 0.01074875 3.76897156 0.01060272 4.56300354 0.01045227 C7.12237823 0.01115157 9.68168104 0.01894471 12.24104309 0.02676392 C14.01081299 0.02862804 15.7805834 0.03005197 17.550354 0.03105164 C22.2176505 0.03487728 26.88491607 0.04470796 31.55220032 0.05575562 C36.31110719 0.06596873 41.07001905 0.07054904 45.82893372 0.07559204 C55.17334837 0.08633019 64.51774004 0.10340717 73.86213684 0.12442017 C74.42463684 2.06192017 74.42463684 2.06192017 74.86213684 4.12442017 C73.15384274 5.83271427 71.00209307 5.24413943 68.72427368 5.24884033 C67.98916061 5.24524506 67.25404755 5.24164978 66.49665833 5.23794556 C65.72598022 5.23809158 64.95530212 5.23823761 64.16127014 5.23838806 C61.60189545 5.23768877 59.04259264 5.22989562 56.48323059 5.22207642 C54.71346069 5.22021229 52.94369028 5.21878836 51.17391968 5.2177887 C46.50662318 5.21396305 41.83935761 5.20413237 37.17207336 5.19308472 C32.41316649 5.1828716 27.65425463 5.17829129 22.89533997 5.17324829 C13.55092531 5.16251014 4.20653364 5.14543316 -5.13786316 5.12442017 C-5.70036316 3.18692017 -5.70036316 3.18692017 -6.13786316 1.12442017 C-4.42956906 -0.58387393 -2.27781939 0.0047009 0 0 Z " fill="#5D5568" transform="translate(66.13786315917969,13.875579833984375)"/>
<path d="M0 0 C0.99 0.33 1.98 0.66 3 1 C2.20860904 7.21903644 -1.45579631 10.1185974 -5.75 14.375 C-6.46671875 15.12394531 -7.1834375 15.87289062 -7.921875 16.64453125 C-8.623125 17.34707031 -9.324375 18.04960937 -10.046875 18.7734375 C-11.00352051 19.73902588 -11.00352051 19.73902588 -11.97949219 20.72412109 C-14 22 -14 22 -16.62084961 21.79467773 C-19.38687653 20.87077649 -20.77609261 19.75940033 -22.8125 17.6875 C-23.71935547 16.79611328 -23.71935547 16.79611328 -24.64453125 15.88671875 C-26 14 -26 14 -26 10 C-21.68607774 10.4793247 -19.83430453 11.7457985 -17 15 C-14.06769807 13.67879172 -12.01335101 12.25361803 -9.765625 9.9609375 C-9.19199219 9.38085938 -8.61835938 8.80078125 -8.02734375 8.203125 C-7.44082031 7.59984375 -6.85429687 6.9965625 -6.25 6.375 C-5.64800781 5.76398438 -5.04601562 5.15296875 -4.42578125 4.5234375 C-2.94594695 3.02011376 -1.47235324 1.51065144 0 0 Z " fill="#554C62" transform="translate(160,115)"/>
</svg>
